  0
SECTION
  2
HEADER
  9
$ACADVER
  1
AC1015
  9
$ACADMAINTVER
 70
     6
  9
$DWGCODEPAGE
  3
ANSI_1252
  9
$INSBASE
 10
0.0
 20
0.0
 30
0.0
  9
$EXTMIN
 10
-35.7960489898
 20
-21.585553632
 30
0.0
  9
$EXTMAX
 10
349.2039510102
 20
74.8849591094
 30
0.0
  9
$LIMMIN
 10
0.0
 20
0.0
  9
$LIMMAX
 10
420.0
 20
297.0
  9
$ORTHOMODE
 70
     0
  9
$REGENMODE
 70
     1
  9
$FILLMODE
 70
     1
  9
$QTEXTMODE
 70
     0
  9
$MIRRTEXT
 70
     1
  9
$LTSCALE
 40
1.0
  9
$ATTMODE
 70
     1
  9
$TEXTSIZE
 40
3.175
  9
$TRACEWID
 40
1.0
  9
$TEXTSTYLE
  7
Standard
  9
$CLAYER
  8
0
  9
$CELTYPE
  6
ByLayer
  9
$CECOLOR
 62
   256
  9
$CELTSCALE
 40
1.0
  9
$DISPSILH
 70
     0
  9
$DIMSCALE
 40
1.0
  9
$DIMASZ
 40
3.302
  9
$DIMEXO
 40
1.27
  9
$DIMDLI
 40
3.75
  9
$DIMRND
 40
0.0
  9
$DIMDLE
 40
0.0
  9
$DIMEXE
 40
3.175
  9
$DIMTP
 40
0.0
  9
$DIMTM
 40
0.0
  9
$DIMTXT
 40
3.175
  9
$DIMCEN
 40
2.5
  9
$DIMTSZ
 40
0.0
  9
$DIMTOL
 70
     0
  9
$DIMLIM
 70
     0
  9
$DIMTIH
 70
     1
  9
$DIMTOH
 70
     1
  9
$DIMSE1
 70
     0
  9
$DIMSE2
 70
     0
  9
$DIMTAD
 70
     0
  9
$DIMZIN
 70
     0
  9
$DIMBLK
  1

  9
$DIMASO
 70
     1
  9
$DIMSHO
 70
     1
  9
$DIMPOST
  1

  9
$DIMAPOST
  1

  9
$DIMALT
 70
     0
  9
$DIMALTD
 70
     3
  9
$DIMALTF
 40
0.0393700787
  9
$DIMLFAC
 40
1.0
  9
$DIMTOFL
 70
     1
  9
$DIMTVP
 40
0.0
  9
$DIMTIX
 70
     0
  9
$DIMSOXD
 70
     0
  9
$DIMSAH
 70
     0
  9
$DIMBLK1
  1

  9
$DIMBLK2
  1

  9
$DIMSTYLE
  2
ISO-25
  9
$DIMCLRD
 70
     0
  9
$DIMCLRE
 70
     0
  9
$DIMCLRT
 70
     0
  9
$DIMTFAC
 40
1.0
  9
$DIMGAP
 40
1.524
  9
$DIMJUST
 70
     0
  9
$DIMSD1
 70
     0
  9
$DIMSD2
 70
     0
  9
$DIMTOLJ
 70
     0
  9
$DIMTZIN
 70
     0
  9
$DIMALTZ
 70
     0
  9
$DIMALTTZ
 70
     0
  9
$DIMUPT
 70
     0
  9
$DIMDEC
 70
     2
  9
$DIMTDEC
 70
     2
  9
$DIMALTU
 70
     2
  9
$DIMALTTD
 70
     3
  9
$DIMTXSTY
  7
Standard
  9
$DIMAUNIT
 70
     0
  9
$DIMADEC
 70
     2
  9
$DIMALTRND
 40
0.0
  9
$DIMAZIN
 70
     0
  9
$DIMDSEP
 70
    44
  9
$DIMATFIT
 70
     3
  9
$DIMFRAC
 70
     0
  9
$DIMLDRBLK
  1

  9
$DIMLUNIT
 70
     2
  9
$DIMLWD
 70
    -2
  9
$DIMLWE
 70
    -2
  9
$DIMTMOVE
 70
     0
  9
$LUNITS
 70
     2
  9
$LUPREC
 70
     2
  9
$SKETCHINC
 40
1.0
  9
$FILLETRAD
 40
10.0
  9
$AUNITS
 70
     0
  9
$AUPREC
 70
     2
  9
$MENU
  1
.
  9
$ELEVATION
 40
0.0
  9
$PELEVATION
 40
0.0
  9
$THICKNESS
 40
0.0
  9
$LIMCHECK
 70
     0
  9
$CHAMFERA
 40
0.0
  9
$CHAMFERB
 40
0.0
  9
$CHAMFERC
 40
0.0
  9
$CHAMFERD
 40
0.0
  9
$SKPOLY
 70
     0
  9
$TDCREATE
 40
2456974.917765602
  9
$TDUCREATE
 40
2456975.126098935
  9
$TDUPDATE
 40
2456974.917912558
  9
$TDUUPDATE
 40
2456975.126245891
  9
$TDINDWG
 40
0.0000000116
  9
$TDUSRTIMER
 40
0.0000000116
  9
$USRTIMER
 70
     1
  9
$ANGBASE
 50
0.0
  9
$ANGDIR
 70
     0
  9
$PDMODE
 70
     0
  9
$PDSIZE
 40
-1.0
  9
$PLINEWID
 40
0.0
  9
$SPLFRAME
 70
     0
  9
$SPLINETYPE
 70
     6
  9
$SPLINESEGS
 70
     8
  9
$HANDSEED
  5
212
  9
$SURFTAB1
 70
     6
  9
$SURFTAB2
 70
     6
  9
$SURFTYPE
 70
     6
  9
$SURFU
 70
     6
  9
$SURFV
 70
     6
  9
$UCSBASE
  2

  9
$UCSNAME
  2

  9
$UCSORG
 10
0.0
 20
0.0
 30
0.0
  9
$UCSXDIR
 10
1.0
 20
0.0
 30
0.0
  9
$UCSYDIR
 10
0.0
 20
1.0
 30
0.0
  9
$UCSORTHOREF
  2

  9
$UCSORTHOVIEW
 70
     0
  9
$UCSORGTOP
 10
0.0
 20
0.0
 30
0.0
  9
$UCSORGBOTTOM
 10
0.0
 20
0.0
 30
0.0
  9
$UCSORGLEFT
 10
0.0
 20
0.0
 30
0.0
  9
$UCSORGRIGHT
 10
0.0
 20
0.0
 30
0.0
  9
$UCSORGFRONT
 10
0.0
 20
0.0
 30
0.0
  9
$UCSORGBACK
 10
0.0
 20
0.0
 30
0.0
  9
$PUCSBASE
  2

  9
$PUCSNAME
  2

  9
$PUCSORG
 10
0.0
 20
0.0
 30
0.0
  9
$PUCSXDIR
 10
1.0
 20
0.0
 30
0.0
  9
$PUCSYDIR
 10
0.0
 20
1.0
 30
0.0
  9
$PUCSORTHOREF
  2

  9
$PUCSORTHOVIEW
 70
     0
  9
$PUCSORGTOP
 10
0.0
 20
0.0
 30
0.0
  9
$PUCSORGBOTTOM
 10
0.0
 20
0.0
 30
0.0
  9
$PUCSORGLEFT
 10
0.0
 20
0.0
 30
0.0
  9
$PUCSORGRIGHT
 10
0.0
 20
0.0
 30
0.0
  9
$PUCSORGFRONT
 10
0.0
 20
0.0
 30
0.0
  9
$PUCSORGBACK
 10
0.0
 20
0.0
 30
0.0
  9
$USERI1
 70
     0
  9
$USERI2
 70
     0
  9
$USERI3
 70
     0
  9
$USERI4
 70
     0
  9
$USERI5
 70
     0
  9
$USERR1
 40
0.0
  9
$USERR2
 40
0.0
  9
$USERR3
 40
0.0
  9
$USERR4
 40
0.0
  9
$USERR5
 40
0.0
  9
$WORLDVIEW
 70
     1
  9
$SHADEDGE
 70
     3
  9
$SHADEDIF
 70
    70
  9
$TILEMODE
 70
     1
  9
$MAXACTVP
 70
    64
  9
$PINSBASE
 10
0.0
 20
0.0
 30
0.0
  9
$PLIMCHECK
 70
     0
  9
$PEXTMIN
 10
1.0000000000E+20
 20
1.0000000000E+20
 30
1.0000000000E+20
  9
$PEXTMAX
 10
-1.0000000000E+20
 20
-1.0000000000E+20
 30
-1.0000000000E+20
  9
$PLIMMIN
 10
0.0
 20
0.0
  9
$PLIMMAX
 10
420.0
 20
297.0
  9
$UNITMODE
 70
     0
  9
$VISRETAIN
 70
     1
  9
$PLINEGEN
 70
     0
  9
$PSLTSCALE
 70
     1
  9
$TREEDEPTH
 70
  3020
  9
$CMLSTYLE
  2
Standard
  9
$CMLJUST
 70
     0
  9
$CMLSCALE
 40
20.0
  9
$PROXYGRAPHICS
 70
     1
  9
$MEASUREMENT
 70
     1
  9
$CELWEIGHT
370
    -1
  9
$ENDCAPS
280
     0
  9
$JOINSTYLE
280
     0
  9
$LWDISPLAY
290
     1
  9
$INSUNITS
 70
     4
  9
$HYPERLINKBASE
  1

  9
$STYLESHEET
  1

  9
$XEDIT
290
     1
  9
$CEPSNTYPE
380
     0
  9
$PSTYLEMODE
290
     1
  9
$FINGERPRINTGUID
  2
{AA7A82A4-0145-4E6A-9791-8948F7DDD272}
  9
$VERSIONGUID
  2
{FAEB1C32-E019-11D5-929B-00C0DF256EC4}
  9
$EXTNAMES
290
     1
  9
$PSVPSCALE
 40
0.0
  9
$OLESTARTUP
290
     0
  0
ENDSEC
  0
SECTION
  2
CLASSES
  0
CLASS
  1
ACDBDICTIONARYWDFLT
  2
AcDbDictionaryWithDefault
  3
ObjectDBX Classes
 90
        0
280
     0
281
     0
  0
CLASS
  1
VISUALSTYLE
  2
AcDbVisualStyle
  3
ObjectDBX Classes
 90
     4095
280
     0
281
     0
  0
CLASS
  1
MATERIAL
  2
AcDbMaterial
  3
ObjectDBX Classes
 90
     1153
280
     0
281
     0
  0
CLASS
  1
SCALE
  2
AcDbScale
  3
ObjectDBX Classes
 90
     1153
280
     0
281
     0
  0
CLASS
  1
SUN
  2
AcDbSun
  3
SCENEOE
 90
     1153
280
     0
281
     0
  0
CLASS
  1
ACDBPLACEHOLDER
  2
AcDbPlaceHolder
  3
ObjectDBX Classes
 90
        0
280
     0
281
     0
  0
CLASS
  1
LAYOUT
  2
AcDbLayout
  3
ObjectDBX Classes
 90
        0
280
     0
281
     0
  0
ENDSEC
  0
SECTION
  2
TABLES
  0
TABLE
  2
VPORT
  5
8
330
0
100
AcDbSymbolTable
 70
     1
  0
VPORT
  5
29
330
8
100
AcDbSymbolTableRecord
100
AcDbViewportTableRecord
  2
*Active
 70
     0
 10
0.0
 20
0.0
 11
1.0
 21
1.0
 12
156.7039510102
 22
26.6497027387
 13
0.0
 23
0.0
 14
10.0
 24
10.0
 15
10.0
 25
10.0
 16
0.0
 26
0.0
 36
1.0
 17
0.0
 27
0.0
 37
0.0
 40
98.3999229962
 41
3.9908567816
 42
50.0
 43
0.0
 44
0.0
 50
0.0
 51
0.0
 71
     0
 72
   100
 73
     1
 74
     3
 75
     0
 76
     0
 77
     0
 78
     0
281
     0
 65
     1
110
0.0
120
0.0
130
0.0
111
1.0
121
0.0
131
0.0
112
0.0
122
1.0
132
0.0
 79
     0
146
0.0
  0
ENDTAB
  0
TABLE
  2
LTYPE
  5
5
330
0
100
AcDbSymbolTable
 70
     6
  0
LTYPE
  5
14
330
5
100
AcDbSymbolTableRecord
100
AcDbLinetypeTableRecord
  2
ByBlock
 70
     0
  3

 72
    65
 73
     0
 40
0.0
  0
LTYPE
  5
15
330
5
100
AcDbSymbolTableRecord
100
AcDbLinetypeTableRecord
  2
ByLayer
 70
     0
  3

 72
    65
 73
     0
 40
0.0
  0
LTYPE
  5
16
330
5
100
AcDbSymbolTableRecord
100
AcDbLinetypeTableRecord
  2
Continuous
 70
     0
  3
Solid line
 72
    65
 73
     0
 40
0.0
  0
LTYPE
  5
6A
330
5
100
AcDbSymbolTableRecord
100
AcDbLinetypeTableRecord
  2
HIDDEN
 70
     0
  3
Hidden __ __ __ __ __ __ __ __ __ __ __ __ __ __
 72
    65
 73
     2
 40
1.905
 49
1.27
 74
     0
 49
-0.635
 74
     0
  0
LTYPE
  5
6B
330
5
100
AcDbSymbolTableRecord
100
AcDbLinetypeTableRecord
  2
PHANTOM
 70
     0
  3
Phantom ______  __  __  ______  __  __  ______
 72
    65
 73
     6
 40
12.7
 49
6.35
 74
     0
 49
-1.27
 74
     0
 49
1.27
 74
     0
 49
-1.27
 74
     0
 49
1.27
 74
     0
 49
-1.27
 74
     0
  0
LTYPE
  5
6C
330
5
100
AcDbSymbolTableRecord
100
AcDbLinetypeTableRecord
  2
CENTER
 70
     0
  3
Center ____ _ ____ _ ____ _ ____ _ ____ _ ____
 72
    65
 73
     4
 40
10.16
 49
6.35
 74
     0
 49
-1.27
 74
     0
 49
1.27
 74
     0
 49
-1.27
 74
     0
  0
LTYPE
  5
6D
330
5
100
AcDbSymbolTableRecord
100
AcDbLinetypeTableRecord
  2
CENTERX2
 70
     0
  3
Center (2x) ________  __  ________  __  _____
 72
    65
 73
     4
 40
20.32
 49
12.7
 74
     0
 49
-2.54
 74
     0
 49
2.54
 74
     0
 49
-2.54
 74
     0
  0
LTYPE
  5
6E
330
5
100
AcDbSymbolTableRecord
100
AcDbLinetypeTableRecord
  2
DOT2
 70
     0
  3
Dot (.5x) ........................................
 72
    65
 73
     2
 40
0.635
 49
0.0
 74
     0
 49
-0.635
 74
     0
  0
ENDTAB
  0
TABLE
  2
LAYER
  5
2
330
0
100
AcDbSymbolTable
 70
     1
  0
LAYER
  5
10
330
2
100
AcDbSymbolTableRecord
100
AcDbLayerTableRecord
  2
0
 70
     0
 62
     7
  6
Continuous
370
    -3
390
F
  0
ENDTAB
  0
TABLE
  2
STYLE
  5
3
330
0
100
AcDbSymbolTable
 70
     2
  0
STYLE
  5
11
330
3
100
AcDbSymbolTableRecord
100
AcDbTextStyleTableRecord
  2
Standard
 70
     0
 40
0.0
 41
1.0
 50
0.0
 71
     0
 42
3.175
  3
txt
  4

  0
STYLE
  5
20F
330
3
100
AcDbSymbolTableRecord
100
AcDbTextStyleTableRecord
  2
SLDTEXTSTYLE0
 70
     0
 40
0.0
 41
0.7
 50
0.0
 71
     0
 42
3.175
  3
TXT
  4

  0
ENDTAB
  0
TABLE
  2
VIEW
  5
6
330
0
100
AcDbSymbolTable
 70
     0
  0
ENDTAB
  0
TABLE
  2
UCS
  5
7
330
0
100
AcDbSymbolTable
 70
     0
  0
ENDTAB
  0
TABLE
  2
APPID
  5
9
330
0
100
AcDbSymbolTable
 70
     1
  0
APPID
  5
12
330
9
100
AcDbSymbolTableRecord
100
AcDbRegAppTableRecord
  2
ACAD
 70
     0
  0
ENDTAB
  0
TABLE
  2
DIMSTYLE
  5
A
330
0
100
AcDbSymbolTable
 70
     1
100
AcDbDimStyleTable
  0
DIMSTYLE
105
27
330
A
100
AcDbSymbolTableRecord
100
AcDbDimStyleTableRecord
  2
ISO-25
 70
     0
 41
2.5
 42
0.625
 43
3.75
 44
1.25
 73
     0
 74
     0
 77
     1
 78
     8
140
2.5
141
2.5
143
0.0393700787
147
0.625
171
     3
172
     1
178
     0
271
     2
272
     2
274
     3
278
    44
283
     0
284
     8
340
11
  0
ENDTAB
  0
TABLE
  2
BLOCK_RECORD
  5
1
330
0
100
AcDbSymbolTable
 70
     1
  0
BLOCK_RECORD
  5
1F
330
1
100
AcDbSymbolTableRecord
100
AcDbBlockTableRecord
  2
*Model_Space
340
22
  0
BLOCK_RECORD
  5
1B
330
1
100
AcDbSymbolTableRecord
100
AcDbBlockTableRecord
  2
*Paper_Space
340
1E
  0
BLOCK_RECORD
  5
23
330
1
100
AcDbSymbolTableRecord
100
AcDbBlockTableRecord
  2
*Paper_Space0
340
26
  0
ENDTAB
  0
ENDSEC
  0
SECTION
  2
BLOCKS
  0
BLOCK
  5
20
330
1F
100
AcDbEntity
  8
0
100
AcDbBlockBegin
  2
*Model_Space
 70
     0
 10
0.0
 20
0.0
 30
0.0
  3
*Model_Space
  1
*Model_Space
  0
ENDBLK
  5
21
330
1F
100
AcDbEntity
  8
0
100
AcDbBlockEnd
  0
BLOCK
  5
1C
330
1B
100
AcDbEntity
 67
     1
  8
0
100
AcDbBlockBegin
  2
*Paper_Space
 70
     0
 10
0.0
 20
0.0
 30
0.0
  3
*Paper_Space
  1
*Paper_Space
  0
ENDBLK
  5
1D
330
1B
100
AcDbEntity
 67
     1
  8
0
100
AcDbBlockEnd
  0
BLOCK
  5
24
330
23
100
AcDbEntity
  8
0
100
AcDbBlockBegin
  2
*Paper_Space0
 70
     0
 10
0.0
 20
0.0
 30
0.0
  3
*Paper_Space0
  1
*Paper_Space0
  0
ENDBLK
  5
25
330
23
100
AcDbEntity
  8
0
100
AcDbBlockEnd
  0
ENDSEC
  0
SECTION
  2
ENTITIES
  0
ARC
  5
6F
330
1F
100
AcDbEntity
  8
0
  6
Continuous
 62
     7
100
AcDbCircle
 10
18.7039510102
 20
34.414446368
 30
0.0
 40
10.50000000000001
100
AcDbArc
 50
270.0
 51
303.5006336992
  0
LINE
  5
70
330
1F
100
AcDbEntity
  8
0
  6
Continuous
 62
     7
100
AcDbLine
 10
34.2039417291
 20
10.8951787196
 30
0.0
 11
34.2039510102
 21
10.914446368
 31
0.0
  0
ARC
  5
71
330
1F
100
AcDbEntity
  8
0
  6
Continuous
 62
     7
100
AcDbCircle
 10
-2.3826800649
 20
17.3388032444
 30
0.0
 40
2.999999999999996
100
AcDbArc
 50
270.0
 51
313.3417582272
  0
CIRCLE
  5
72
330
1F
100
AcDbEntity
  8
0
  6
Continuous
 62
     7
100
AcDbCircle
 10
1.3922371527
 20
13.3388032444
 30
0.0
 40
1.092200000000001
  0
ARC
  5
73
330
1F
100
AcDbEntity
  8
0
  6
Continuous
 62
     7
100
AcDbCircle
 10
1.3922371527
 20
13.3388032444
 30
0.0
 40
2.5
100
AcDbArc
 50
226.6582417728
 51
133.3417582272
  0
ARC
  5
74
330
1F
100
AcDbEntity
  8
0
  6
Continuous
 62
     7
100
AcDbCircle
 10
-2.3826800649
 20
9.3388032444
 30
0.0
 40
2.999999999999995
100
AcDbArc
 50
46.6582417728
 51
90.0
  0
ARC
  5
75
330
1F
100
AcDbEntity
  8
0
  6
Continuous
 62
     7
100
AcDbCircle
 10
-0.7960489898
 20
10.914446368
 30
0.0
 40
20.00000000000001
100
AcDbArc
 50
217.7940910769
 51
270.0
  0
ARC
  5
76
330
1F
100
AcDbEntity
  8
0
  6
Continuous
 62
     7
100
AcDbCircle
 10
44.2039370886
 20
10.8855448954
 30
0.0
 40
10.0
100
AcDbArc
 50
179.9448022448
 51
205.5332656602
  0
ARC
  5
77
330
1F
100
AcDbEntity
  8
0
  6
Continuous
 62
     7
100
AcDbCircle
 10
-4.7307461935
 20
13.5888032444
 30
0.0
 40
0.7500000000000009
100
AcDbArc
 50
90.0
 51
180.0
  0
ARC
  5
78
330
1F
100
AcDbEntity
  8
0
  6
Continuous
 62
     7
100
AcDbCircle
 10
-4.7307461935
 20
13.0888032444
 30
0.0
 40
0.7500000000000018
100
AcDbArc
 50
180.0
 51
270.0
  0
ARC
  5
79
330
1F
100
AcDbEntity
  8
0
  6
Continuous
 62
     7
100
AcDbCircle
 10
-2.3826800649
 20
11.1227733355
 30
0.0
 40
2.999999999999996
100
AcDbArc
 50
270.0
 51
313.3417582272
  0
CIRCLE
  5
7A
330
1F
100
AcDbEntity
  8
0
  6
Continuous
 62
     7
100
AcDbCircle
 10
1.3922371527
 20
7.1227733355
 30
0.0
 40
1.092199999999998
  0
ARC
  5
7B
330
1F
100
AcDbEntity
  8
0
  6
Continuous
 62
     7
100
AcDbCircle
 10
1.3922371527
 20
7.1227733355
 30
0.0
 40
2.500000000000001
100
AcDbArc
 50
226.6582417728
 51
133.3417582272
  0
ARC
  5
7C
330
1F
100
AcDbEntity
  8
0
  6
Continuous
 62
     7
100
AcDbCircle
 10
-2.3826800649
 20
3.1227733355
 30
0.0
 40
2.999999999999996
100
AcDbArc
 50
46.6582417728
 51
90.0
  0
ARC
  5
7D
330
1F
100
AcDbEntity
  8
0
  6
Continuous
 62
     7
100
AcDbCircle
 10
-4.7307461935
 20
7.3727733355
 30
0.0
 40
0.7500000000000009
100
AcDbArc
 50
90.0
 51
180.0
  0
ARC
  5
7E
330
1F
100
AcDbEntity
  8
0
  6
Continuous
 62
     7
100
AcDbCircle
 10
-4.7307461935
 20
6.8727733355
 30
0.0
 40
0.7500000000000009
100
AcDbArc
 50
180.0
 51
270.0
  0
ARC
  5
7F
330
1F
100
AcDbEntity
  8
0
  6
Continuous
 62
     7
100
AcDbCircle
 10
-2.3826800649
 20
4.9067434267
 30
0.0
 40
2.999999999999996
100
AcDbArc
 50
270.0
 51
313.3417582272
  0
CIRCLE
  5
80
330
1F
100
AcDbEntity
  8
0
  6
Continuous
 62
     7
100
AcDbCircle
 10
1.3922371527
 20
0.9067434267
 30
0.0
 40
1.092199999999998
  0
ARC
  5
81
330
1F
100
AcDbEntity
  8
0
  6
Continuous
 62
     7
100
AcDbCircle
 10
1.3922371527
 20
0.9067434267
 30
0.0
 40
2.5
100
AcDbArc
 50
226.6582417728
 51
133.3417582272
  0
ARC
  5
82
330
1F
100
AcDbEntity
  8
0
  6
Continuous
 62
     7
100
AcDbCircle
 10
-2.3826800649
 20
-3.0932565733
 30
0.0
 40
2.999999999999996
100
AcDbArc
 50
46.6582417728
 51
90.0
  0
ARC
  5
83
330
1F
100
AcDbEntity
  8
0
  6
Continuous
 62
     7
100
AcDbCircle
 10
-4.7307461935
 20
1.1567434267
 30
0.0
 40
0.7500000000000007
100
AcDbArc
 50
90.0
 51
180.0
  0
ARC
  5
84
330
1F
100
AcDbEntity
  8
0
  6
Continuous
 62
     7
100
AcDbCircle
 10
-4.7307461935
 20
0.6567434267
 30
0.0
 40
0.7500000000000007
100
AcDbArc
 50
180.0
 51
270.0
  0
CIRCLE
  5
85
330
1F
100
AcDbEntity
  8
0
  6
Continuous
 62
     7
100
AcDbCircle
 10
25.6560711303
 20
5.8291077444
 30
0.0
 40
3.174999999999996
  0
CIRCLE
  5
86
330
1F
100
AcDbEntity
  8
0
  6
Continuous
 62
     7
100
AcDbCircle
 10
25.6560711303
 20
5.8291077444
 30
0.0
 40
4.762499999999998
  0
ARC
  5
87
330
1F
100
AcDbEntity
  8
0
  6
Continuous
 62
     7
100
AcDbCircle
 10
-12.195376592
 20
23.990949899
 30
0.0
 40
2.0
100
AcDbArc
 50
56.4993663008
 51
127.594364998
  0
ARC
  5
88
330
1F
100
AcDbEntity
  8
0
  6
Continuous
 62
     7
100
AcDbCircle
 10
-18.7960489898
 20
21.9269541903
 30
0.0
 40
2.000000000000004
100
AcDbArc
 50
87.1340160174
 51
180.0
  0
ARC
  5
89
330
1F
100
AcDbEntity
  8
0
  6
Continuous
 62
     7
100
AcDbCircle
 10
31.7039510102
 20
31.914446368
 30
0.0
 40
7.999999999999998
100
AcDbArc
 50
232.405635002
 51
272.8659839826
  0
CIRCLE
  5
8A
330
1F
100
AcDbEntity
  8
0
  6
Continuous
 62
     7
100
AcDbCircle
 10
25.1843790416
 20
17.7504923247
 30
0.0
 40
3.175
  0
ARC
  5
8B
330
1F
100
AcDbEntity
  8
0
  6
Continuous
 62
     7
100
AcDbCircle
 10
25.6032786123
 20
23.990949899
 30
0.0
 40
1.999999999999997
100
AcDbArc
 50
52.405635002
 51
123.5006336992
  0
ARC
  5
8C
330
1F
100
AcDbEntity
  8
0
  6
Continuous
 62
     7
100
AcDbCircle
 10
14.2039510102
 20
10.914446368
 30
0.0
 40
20.0
100
AcDbArc
 50
270.0
 51
322.2059089231
  0
LINE
  5
8D
330
1F
100
AcDbEntity
  8
0
  6
Continuous
 62
     7
100
AcDbLine
 10
-20.7960489898
 20
10.914446368
 30
0.0
 11
-20.7960397088
 21
10.8951787196
 31
0.0
  0
ARC
  5
8E
330
1F
100
AcDbEntity
  8
0
  6
Continuous
 62
     7
100
AcDbCircle
 10
37.9104975315
 20
-7.4703204794
 30
0.0
 40
10.0
100
AcDbArc
 50
116.6174455077
 51
142.2059089231
  0
CIRCLE
  5
8F
330
1F
100
AcDbEntity
  8
0
  6
Continuous
 62
     7
100
AcDbCircle
 10
25.1843790416
 20
17.7504923247
 30
0.0
 40
4.762499999999998
  0
ARC
  5
90
330
1F
100
AcDbEntity
  8
0
  6
Continuous
 62
     7
100
AcDbCircle
 10
-18.2960489898
 20
31.914446368
 30
0.0
 40
7.99999999999998
100
AcDbArc
 50
267.1340160174
 51
307.594364998
  0
ARC
  5
91
330
1F
100
AcDbEntity
  8
0
  6
Continuous
 62
     7
100
AcDbCircle
 10
-24.5025955112
 20
-7.4703204794
 30
0.0
 40
10.0
100
AcDbArc
 50
37.7940910769
 51
63.3825544923
  0
CIRCLE
  5
92
330
1F
100
AcDbEntity
  8
0
  6
Continuous
 62
     7
100
AcDbCircle
 10
-32.5166352075
 20
54.4973351409
 30
0.0
 40
1.092200000000005
  0
ARC
  5
93
330
1F
100
AcDbEntity
  8
0
  6
Continuous
 62
     7
100
AcDbCircle
 10
-30.7960350682
 20
10.8855448954
 30
0.0
 40
10.0
100
AcDbArc
 50
334.4667343398
 51
0.0551977552
  0
ARC
  5
94
330
1F
100
AcDbEntity
  8
0
  6
Continuous
 62
     7
100
AcDbCircle
 10
0.0259033164
 20
-14.085553632
 30
0.0
 40
5.000000000000002
100
AcDbArc
 50
32.1668681727
 51
90.0
  0
ARC
  5
95
330
1F
100
AcDbEntity
  8
0
  6
Continuous
 62
     7
100
AcDbCircle
 10
-5.2960489898
 20
34.414446368
 30
0.0
 40
10.5
100
AcDbArc
 50
236.4993663008
 51
270.0
  0
ARC
  5
96
330
1F
100
AcDbEntity
  8
0
  6
Continuous
 62
     7
100
AcDbCircle
 10
-18.2960489898
 20
4.914446368
 30
0.0
 40
3.852929999999994
100
AcDbArc
 50
154.4667343398
 51
243.3825544923
  0
ARC
  5
97
330
1F
100
AcDbEntity
  8
0
  6
Continuous
 62
     7
100
AcDbCircle
 10
31.7039510102
 20
4.914446368
 30
0.0
 40
3.852930000000008
100
AcDbArc
 50
296.6174455077
 51
25.5332656602
  0
ARC
  5
98
330
1F
100
AcDbEntity
  8
0
  6
Continuous
 62
     7
100
AcDbCircle
 10
6.7039510102
 20
-9.885553632
 30
0.0
 40
2.888999999999998
100
AcDbArc
 50
212.1668681727
 51
327.8331318273
  0
CIRCLE
  5
99
330
1F
100
AcDbEntity
  8
0
  6
Continuous
 62
     7
100
AcDbCircle
 10
17.4833647925
 20
54.4973351409
 30
0.0
 40
1.092200000000015
  0
ARC
  5
9A
330
1F
100
AcDbEntity
  8
0
  6
Continuous
 62
     7
100
AcDbCircle
 10
32.2039510102
 20
21.9269541903
 30
0.0
 40
2.000000000000007
100
AcDbArc
 50
0.0
 51
92.8659839826
  0
ARC
  5
9B
330
1F
100
AcDbEntity
  8
0
  6
Continuous
 62
     7
100
AcDbCircle
 10
13.3819987039
 20
-14.085553632
 30
0.0
 40
5.000000000000002
100
AcDbArc
 50
90.0
 51
147.8331318273
  0
CIRCLE
  5
9C
330
1F
100
AcDbEntity
  8
0
  6
Continuous
 62
     7
100
AcDbCircle
 10
-7.5166352075
 20
54.4973351409
 30
0.0
 40
1.092199999999959
  0
ARC
  5
9D
330
1F
100
AcDbEntity
  8
0
  6
Continuous
 62
     7
100
AcDbCircle
 10
-32.5166352075
 20
54.4973351409
 30
0.0
 40
2.500000000000007
100
AcDbArc
 50
90.0
 51
270.0
  0
ARC
  5
9E
330
1F
100
AcDbEntity
  8
0
  6
Continuous
 62
     7
100
AcDbCircle
 10
17.4833647925
 20
54.4973351409
 30
0.0
 40
2.500000000000007
100
AcDbArc
 50
270.0
 51
90.0
  0
CIRCLE
  5
9F
330
1F
100
AcDbEntity
  8
0
  6
Continuous
 62
     7
100
AcDbCircle
 10
27.4833647925
 20
54.4973351409
 30
0.0
 40
1.092200000000008
  0
CIRCLE
  5
A0
330
1F
100
AcDbEntity
  8
0
  6
Continuous
 62
     7
100
AcDbCircle
 10
77.4833647925
 20
54.4973351409
 30
0.0
 40
1.092200000000022
  0
ARC
  5
A1
330
1F
100
AcDbEntity
  8
0
  6
Continuous
 62
     7
100
AcDbCircle
 10
1.3922371527
 20
19.5548331533
 30
0.0
 40
2.500000000000001
100
AcDbArc
 50
226.6582417728
 51
133.3417582272
  0
ARC
  5
A2
330
1F
100
AcDbEntity
  8
0
  6
Continuous
 62
     7
100
AcDbCircle
 10
-4.7307461935
 20
19.3048331533
 30
0.0
 40
0.7500000000000009
100
AcDbArc
 50
180.0
 51
270.0
  0
ARC
  5
A3
330
1F
100
AcDbEntity
  8
0
  6
Continuous
 62
     7
100
AcDbCircle
 10
-4.7307461935
 20
19.8048331533
 30
0.0
 40
0.7500000000000036
100
AcDbArc
 50
90.0
 51
180.0
  0
ARC
  5
A4
330
1F
100
AcDbEntity
  8
0
  6
Continuous
 62
     7
100
AcDbCircle
 10
-2.3826800649
 20
15.5548331533
 30
0.0
 40
2.999999999999995
100
AcDbArc
 50
46.6582417728
 51
90.0
  0
ARC
  5
A5
330
1F
100
AcDbEntity
  8
0
  6
Continuous
 62
     7
100
AcDbCircle
 10
-2.3826800649
 20
23.5548331533
 30
0.0
 40
2.999999999999995
100
AcDbArc
 50
270.0
 51
313.3417582272
  0
CIRCLE
  5
A6
330
1F
100
AcDbEntity
  8
0
  6
Continuous
 62
     7
100
AcDbCircle
 10
1.3922371527
 20
19.5548331533
 30
0.0
 40
1.092200000000002
  0
CIRCLE
  5
A7
330
1F
100
AcDbEntity
  8
0
  6
Continuous
 62
     7
100
AcDbCircle
 10
52.4833647925
 20
54.4973351409
 30
0.0
 40
1.092199999999957
  0
ARC
  5
A8
330
1F
100
AcDbEntity
  8
0
  6
Continuous
 62
     7
100
AcDbCircle
 10
27.4833647925
 20
54.4973351409
 30
0.0
 40
2.500000000000007
100
AcDbArc
 50
90.0
 51
270.0
  0
ARC
  5
A9
330
1F
100
AcDbEntity
  8
0
  6
Continuous
 62
     7
100
AcDbCircle
 10
77.4833647925
 20
54.4973351409
 30
0.0
 40
2.500000000000007
100
AcDbArc
 50
270.0
 51
90.0
  0
CIRCLE
  5
AA
330
1F
100
AcDbEntity
  8
0
  6
Continuous
 62
     7
100
AcDbCircle
 10
87.4833647925
 20
54.4973351409
 30
0.0
 40
1.092200000000008
  0
CIRCLE
  5
AB
330
1F
100
AcDbEntity
  8
0
  6
Continuous
 62
     7
100
AcDbCircle
 10
137.4833647925
 20
54.4973351409
 30
0.0
 40
1.092200000000022
  0
CIRCLE
  5
AC
330
1F
100
AcDbEntity
  8
0
  6
Continuous
 62
     7
100
AcDbCircle
 10
112.4833647925
 20
54.4973351409
 30
0.0
 40
1.09219999999995
  0
ARC
  5
AD
330
1F
100
AcDbEntity
  8
0
  6
Continuous
 62
     7
100
AcDbCircle
 10
87.4833647925
 20
54.4973351409
 30
0.0
 40
2.500000000000007
100
AcDbArc
 50
90.0
 51
270.0
  0
ARC
  5
AE
330
1F
100
AcDbEntity
  8
0
  6
Continuous
 62
     7
100
AcDbCircle
 10
137.4833647925
 20
54.4973351409
 30
0.0
 40
2.500000000000007
100
AcDbArc
 50
270.0
 51
90.0
  0
CIRCLE
  5
AF
330
1F
100
AcDbEntity
  8
0
  6
Continuous
 62
     7
100
AcDbCircle
 10
147.4833647925
 20
54.4973351409
 30
0.0
 40
1.092200000000022
  0
CIRCLE
  5
B0
330
1F
100
AcDbEntity
  8
0
  6
Continuous
 62
     7
100
AcDbCircle
 10
197.4833647925
 20
54.4973351409
 30
0.0
 40
1.092200000000022
  0
CIRCLE
  5
B1
330
1F
100
AcDbEntity
  8
0
  6
Continuous
 62
     7
100
AcDbCircle
 10
172.4833647925
 20
54.4973351409
 30
0.0
 40
1.092199999999963
  0
ARC
  5
B2
330
1F
100
AcDbEntity
  8
0
  6
Continuous
 62
     7
100
AcDbCircle
 10
147.4833647925
 20
54.4973351409
 30
0.0
 40
2.500000000000007
100
AcDbArc
 50
90.0
 51
270.0
  0
ARC
  5
B3
330
1F
100
AcDbEntity
  8
0
  6
Continuous
 62
     7
100
AcDbCircle
 10
197.4833647925
 20
54.4973351409
 30
0.0
 40
2.500000000000007
100
AcDbArc
 50
270.0
 51
90.0
  0
CIRCLE
  5
B4
330
1F
100
AcDbEntity
  8
0
  6
Continuous
 62
     7
100
AcDbCircle
 10
16.5924298442
 20
64.919551243
 30
0.0
 40
1.092200000000062
  0
ARC
  5
B5
330
1F
100
AcDbEntity
  8
0
  6
Continuous
 62
     7
100
AcDbCircle
 10
-29.9075701558
 20
64.919551243
 30
0.0
 40
4.762500000000074
100
AcDbArc
 50
90.0
 51
270.0
  0
CIRCLE
  5
B6
330
1F
100
AcDbEntity
  8
0
  6
Continuous
 62
     7
100
AcDbCircle
 10
-29.9075701558
 20
64.919551243
 30
0.0
 40
1.092200000000014
  0
CIRCLE
  5
B7
330
1F
100
AcDbEntity
  8
0
  6
Continuous
 62
     7
100
AcDbCircle
 10
-12.6575701558
 20
64.919551243
 30
0.0
 40
3.174999999999975
  0
ARC
  5
B8
330
1F
100
AcDbEntity
  8
0
  6
Continuous
 62
     7
100
AcDbCircle
 10
16.5924298442
 20
64.919551243
 30
0.0
 40
4.762500000000045
100
AcDbArc
 50
270.0
 51
90.0
  0
CIRCLE
  5
B9
330
1F
100
AcDbEntity
  8
0
  6
Continuous
 62
     7
100
AcDbCircle
 10
255.938960828
 20
56.9973351409
 30
0.0
 40
1.092200000000072
  0
ARC
  5
BA
330
1F
100
AcDbEntity
  8
0
  6
Continuous
 62
     7
100
AcDbCircle
 10
209.438960828
 20
56.9973351409
 30
0.0
 40
4.762500000000074
100
AcDbArc
 50
90.0
 51
270.0
  0
CIRCLE
  5
BB
330
1F
100
AcDbEntity
  8
0
  6
Continuous
 62
     7
100
AcDbCircle
 10
209.438960828
 20
56.9973351409
 30
0.0
 40
1.092200000000007
  0
CIRCLE
  5
BC
330
1F
100
AcDbEntity
  8
0
  6
Continuous
 62
     7
100
AcDbCircle
 10
226.688960828
 20
56.9973351409
 30
0.0
 40
3.174999999999972
  0
ARC
  5
BD
330
1F
100
AcDbEntity
  8
0
  6
Continuous
 62
     7
100
AcDbCircle
 10
255.938960828
 20
56.9973351409
 30
0.0
 40
4.762500000000067
100
AcDbArc
 50
270.0
 51
90.0
  0
CIRCLE
  5
BE
330
1F
100
AcDbEntity
  8
0
  6
Continuous
 62
     7
100
AcDbCircle
 10
315.938960828
 20
56.9973351409
 30
0.0
 40
1.092200000000072
  0
ARC
  5
BF
330
1F
100
AcDbEntity
  8
0
  6
Continuous
 62
     7
100
AcDbCircle
 10
269.438960828
 20
56.9973351409
 30
0.0
 40
4.762500000000074
100
AcDbArc
 50
90.0
 51
270.0
  0
CIRCLE
  5
C0
330
1F
100
AcDbEntity
  8
0
  6
Continuous
 62
     7
100
AcDbCircle
 10
269.438960828
 20
56.9973351409
 30
0.0
 40
1.092199999999982
  0
CIRCLE
  5
C1
330
1F
100
AcDbEntity
  8
0
  6
Continuous
 62
     7
100
AcDbCircle
 10
286.688960828
 20
56.9973351409
 30
0.0
 40
3.174999999999963
  0
ARC
  5
C2
330
1F
100
AcDbEntity
  8
0
  6
Continuous
 62
     7
100
AcDbCircle
 10
315.938960828
 20
56.9973351409
 30
0.0
 40
4.76249999999996
100
AcDbArc
 50
270.0
 51
90.0
  0
CIRCLE
  5
C3
330
1F
100
AcDbEntity
  8
0
  6
Continuous
 62
     7
100
AcDbCircle
 10
76.5924298442
 20
64.919551243
 30
0.0
 40
1.092200000000059
  0
ARC
  5
C4
330
1F
100
AcDbEntity
  8
0
  6
Continuous
 62
     7
100
AcDbCircle
 10
30.0924298442
 20
64.919551243
 30
0.0
 40
4.762500000000074
100
AcDbArc
 50
90.0
 51
270.0
  0
CIRCLE
  5
C5
330
1F
100
AcDbEntity
  8
0
  6
Continuous
 62
     7
100
AcDbCircle
 10
30.0924298442
 20
64.919551243
 30
0.0
 40
1.092199999999998
  0
CIRCLE
  5
C6
330
1F
100
AcDbEntity
  8
0
  6
Continuous
 62
     7
100
AcDbCircle
 10
47.3424298442
 20
64.919551243
 30
0.0
 40
3.174999999999975
  0
ARC
  5
C7
330
1F
100
AcDbEntity
  8
0
  6
Continuous
 62
     7
100
AcDbCircle
 10
76.5924298442
 20
64.919551243
 30
0.0
 40
4.76249999999996
100
AcDbArc
 50
270.0
 51
90.0
  0
CIRCLE
  5
C8
330
1F
100
AcDbEntity
  8
0
  6
Continuous
 62
     7
100
AcDbCircle
 10
134.9810194814
 20
65.6299315269
 30
0.0
 40
1.092200000000045
  0
ARC
  5
C9
330
1F
100
AcDbEntity
  8
0
  6
Continuous
 62
     7
100
AcDbCircle
 10
88.4810194814
 20
65.6299315269
 30
0.0
 40
4.762500000000074
100
AcDbArc
 50
90.0
 51
270.0
  0
CIRCLE
  5
CA
330
1F
100
AcDbEntity
  8
0
  6
Continuous
 62
     7
100
AcDbCircle
 10
88.4810194814
 20
65.6299315269
 30
0.0
 40
1.092200000000014
  0
CIRCLE
  5
CB
330
1F
100
AcDbEntity
  8
0
  6
Continuous
 62
     7
100
AcDbCircle
 10
105.7310194814
 20
65.6299315269
 30
0.0
 40
3.174999999999975
  0
ARC
  5
CC
330
1F
100
AcDbEntity
  8
0
  6
Continuous
 62
     7
100
AcDbCircle
 10
134.9810194814
 20
65.6299315269
 30
0.0
 40
4.762500000000038
100
AcDbArc
 50
270.0
 51
90.0
  0
CIRCLE
  5
CD
330
1F
100
AcDbEntity
  8
0
  6
Continuous
 62
     7
100
AcDbCircle
 10
194.9810194814
 20
65.6299315269
 30
0.0
 40
1.092200000000045
  0
ARC
  5
CE
330
1F
100
AcDbEntity
  8
0
  6
Continuous
 62
     7
100
AcDbCircle
 10
148.4810194814
 20
65.6299315269
 30
0.0
 40
4.762500000000074
100
AcDbArc
 50
90.0
 51
270.0
  0
CIRCLE
  5
CF
330
1F
100
AcDbEntity
  8
0
  6
Continuous
 62
     7
100
AcDbCircle
 10
148.4810194814
 20
65.6299315269
 30
0.0
 40
1.092199999999997
  0
CIRCLE
  5
D0
330
1F
100
AcDbEntity
  8
0
  6
Continuous
 62
     7
100
AcDbCircle
 10
165.7310194814
 20
65.6299315269
 30
0.0
 40
3.174999999999979
  0
ARC
  5
D1
330
1F
100
AcDbEntity
  8
0
  6
Continuous
 62
     7
100
AcDbCircle
 10
194.9810194814
 20
65.6299315269
 30
0.0
 40
4.76249999999996
100
AcDbArc
 50
270.0
 51
90.0
  0
CIRCLE
  5
D2
330
1F
100
AcDbEntity
  8
0
  6
Continuous
 62
     7
100
AcDbCircle
 10
252.7198170565
 20
70.1224591094
 30
0.0
 40
1.092200000000072
  0
ARC
  5
D3
330
1F
100
AcDbEntity
  8
0
  6
Continuous
 62
     7
100
AcDbCircle
 10
206.2198170565
 20
70.1224591094
 30
0.0
 40
4.762500000000074
100
AcDbArc
 50
90.0
 51
270.0
  0
CIRCLE
  5
D4
330
1F
100
AcDbEntity
  8
0
  6
Continuous
 62
     7
100
AcDbCircle
 10
206.2198170565
 20
70.1224591094
 30
0.0
 40
1.092200000000014
  0
CIRCLE
  5
D5
330
1F
100
AcDbEntity
  8
0
  6
Continuous
 62
     7
100
AcDbCircle
 10
223.4698170565
 20
70.1224591094
 30
0.0
 40
3.174999999999979
  0
ARC
  5
D6
330
1F
100
AcDbEntity
  8
0
  6
Continuous
 62
     7
100
AcDbCircle
 10
252.7198170565
 20
70.1224591094
 30
0.0
 40
4.76250000000006
100
AcDbArc
 50
270.0
 51
90.0
  0
CIRCLE
  5
D7
330
1F
100
AcDbEntity
  8
0
  6
Continuous
 62
     7
100
AcDbCircle
 10
312.7198170565
 20
70.1224591094
 30
0.0
 40
1.092200000000072
  0
ARC
  5
D8
330
1F
100
AcDbEntity
  8
0
  6
Continuous
 62
     7
100
AcDbCircle
 10
266.2198170565
 20
70.1224591094
 30
0.0
 40
4.762500000000074
100
AcDbArc
 50
90.0
 51
270.0
  0
CIRCLE
  5
D9
330
1F
100
AcDbEntity
  8
0
  6
Continuous
 62
     7
100
AcDbCircle
 10
266.2198170565
 20
70.1224591094
 30
0.0
 40
1.092199999999989
  0
CIRCLE
  5
DA
330
1F
100
AcDbEntity
  8
0
  6
Continuous
 62
     7
100
AcDbCircle
 10
283.4698170565
 20
70.1224591094
 30
0.0
 40
3.17499999999997
  0
ARC
  5
DB
330
1F
100
AcDbEntity
  8
0
  6
Continuous
 62
     7
100
AcDbCircle
 10
312.7198170565
 20
70.1224591094
 30
0.0
 40
4.76249999999996
100
AcDbArc
 50
270.0
 51
90.0
  0
ARC
  5
DC
330
1F
100
AcDbEntity
  8
0
  6
Continuous
 62
     7
100
AcDbCircle
 10
118.7039510102
 20
34.414446368
 30
0.0
 40
10.50000000000001
100
AcDbArc
 50
270.0
 51
303.5006336992
  0
LINE
  5
DD
330
1F
100
AcDbEntity
  8
0
  6
Continuous
 62
     7
100
AcDbLine
 10
134.2039417291
 20
10.8951787196
 30
0.0
 11
134.2039510102
 21
10.914446368
 31
0.0
  0
ARC
  5
DE
330
1F
100
AcDbEntity
  8
0
  6
Continuous
 62
     7
100
AcDbCircle
 10
97.6173199351
 20
17.3388032444
 30
0.0
 40
2.999999999999999
100
AcDbArc
 50
270.0
 51
313.3417582272
  0
CIRCLE
  5
DF
330
1F
100
AcDbEntity
  8
0
  6
Continuous
 62
     7
100
AcDbCircle
 10
101.3922371527
 20
13.3388032444
 30
0.0
 40
1.092199999999993
  0
ARC
  5
E0
330
1F
100
AcDbEntity
  8
0
  6
Continuous
 62
     7
100
AcDbCircle
 10
101.3922371527
 20
13.3388032444
 30
0.0
 40
2.500000000000004
100
AcDbArc
 50
226.6582417728
 51
133.3417582272
  0
ARC
  5
E1
330
1F
100
AcDbEntity
  8
0
  6
Continuous
 62
     7
100
AcDbCircle
 10
97.6173199351
 20
9.3388032444
 30
0.0
 40
2.999999999999998
100
AcDbArc
 50
46.6582417728
 51
90.0
  0
ARC
  5
E2
330
1F
100
AcDbEntity
  8
0
  6
Continuous
 62
     7
100
AcDbCircle
 10
99.2039510102
 20
10.914446368
 30
0.0
 40
20.00000000000001
100
AcDbArc
 50
217.7940910769
 51
270.0
  0
ARC
  5
E3
330
1F
100
AcDbEntity
  8
0
  6
Continuous
 62
     7
100
AcDbCircle
 10
144.2039370886
 20
10.8855448954
 30
0.0
 40
10.00000000000003
100
AcDbArc
 50
179.9448022448
 51
205.5332656602
  0
ARC
  5
E4
330
1F
100
AcDbEntity
  8
0
  6
Continuous
 62
     7
100
AcDbCircle
 10
95.2692538065
 20
13.5888032444
 30
0.0
 40
0.75
100
AcDbArc
 50
90.0
 51
180.0
  0
ARC
  5
E5
330
1F
100
AcDbEntity
  8
0
  6
Continuous
 62
     7
100
AcDbCircle
 10
95.2692538065
 20
13.0888032444
 30
0.0
 40
0.7500000000000018
100
AcDbArc
 50
180.0
 51
270.0
  0
ARC
  5
E6
330
1F
100
AcDbEntity
  8
0
  6
Continuous
 62
     7
100
AcDbCircle
 10
97.6173199351
 20
11.1227733355
 30
0.0
 40
2.999999999999999
100
AcDbArc
 50
270.0
 51
313.3417582272
  0
CIRCLE
  5
E7
330
1F
100
AcDbEntity
  8
0
  6
Continuous
 62
     7
100
AcDbCircle
 10
101.3922371527
 20
7.1227733355
 30
0.0
 40
1.092199999999993
  0
ARC
  5
E8
330
1F
100
AcDbEntity
  8
0
  6
Continuous
 62
     7
100
AcDbCircle
 10
101.3922371527
 20
7.1227733355
 30
0.0
 40
2.500000000000004
100
AcDbArc
 50
226.6582417728
 51
133.3417582272
  0
ARC
  5
E9
330
1F
100
AcDbEntity
  8
0
  6
Continuous
 62
     7
100
AcDbCircle
 10
97.6173199351
 20
3.1227733355
 30
0.0
 40
2.999999999999998
100
AcDbArc
 50
46.6582417728
 51
90.0
  0
ARC
  5
EA
330
1F
100
AcDbEntity
  8
0
  6
Continuous
 62
     7
100
AcDbCircle
 10
95.2692538065
 20
7.3727733355
 30
0.0
 40
0.75
100
AcDbArc
 50
90.0
 51
180.0
  0
ARC
  5
EB
330
1F
100
AcDbEntity
  8
0
  6
Continuous
 62
     7
100
AcDbCircle
 10
95.2692538065
 20
6.8727733355
 30
0.0
 40
0.7500000000000009
100
AcDbArc
 50
180.0
 51
270.0
  0
ARC
  5
EC
330
1F
100
AcDbEntity
  8
0
  6
Continuous
 62
     7
100
AcDbCircle
 10
97.6173199351
 20
4.9067434267
 30
0.0
 40
2.999999999999996
100
AcDbArc
 50
270.0
 51
313.3417582272
  0
CIRCLE
  5
ED
330
1F
100
AcDbEntity
  8
0
  6
Continuous
 62
     7
100
AcDbCircle
 10
101.3922371527
 20
0.9067434267
 30
0.0
 40
1.092199999999993
  0
ARC
  5
EE
330
1F
100
AcDbEntity
  8
0
  6
Continuous
 62
     7
100
AcDbCircle
 10
101.3922371527
 20
0.9067434267
 30
0.0
 40
2.500000000000004
100
AcDbArc
 50
226.6582417728
 51
133.3417582272
  0
ARC
  5
EF
330
1F
100
AcDbEntity
  8
0
  6
Continuous
 62
     7
100
AcDbCircle
 10
97.6173199351
 20
-3.0932565733
 30
0.0
 40
2.999999999999996
100
AcDbArc
 50
46.6582417728
 51
90.0
  0
ARC
  5
F0
330
1F
100
AcDbEntity
  8
0
  6
Continuous
 62
     7
100
AcDbCircle
 10
95.2692538065
 20
1.1567434267
 30
0.0
 40
0.7500000000000007
100
AcDbArc
 50
90.0
 51
180.0
  0
ARC
  5
F1
330
1F
100
AcDbEntity
  8
0
  6
Continuous
 62
     7
100
AcDbCircle
 10
95.2692538065
 20
0.6567434267
 30
0.0
 40
0.7500000000000007
100
AcDbArc
 50
180.0
 51
270.0
  0
CIRCLE
  5
F2
330
1F
100
AcDbEntity
  8
0
  6
Continuous
 62
     7
100
AcDbCircle
 10
125.6560711303
 20
5.8291077444
 30
0.0
 40
3.174999999999976
  0
CIRCLE
  5
F3
330
1F
100
AcDbEntity
  8
0
  6
Continuous
 62
     7
100
AcDbCircle
 10
125.6560711303
 20
5.8291077444
 30
0.0
 40
4.762499999999991
  0
ARC
  5
F4
330
1F
100
AcDbEntity
  8
0
  6
Continuous
 62
     7
100
AcDbCircle
 10
87.804623408
 20
23.990949899
 30
0.0
 40
2.000000000000007
100
AcDbArc
 50
56.4993663008
 51
127.594364998
  0
ARC
  5
F5
330
1F
100
AcDbEntity
  8
0
  6
Continuous
 62
     7
100
AcDbCircle
 10
81.2039510102
 20
21.9269541903
 30
0.0
 40
2.0
100
AcDbArc
 50
87.1340160174
 51
180.0
  0
ARC
  5
F6
330
1F
100
AcDbEntity
  8
0
  6
Continuous
 62
     7
100
AcDbCircle
 10
131.7039510102
 20
31.914446368
 30
0.0
 40
8.000000000000002
100
AcDbArc
 50
232.405635002
 51
272.8659839826
  0
CIRCLE
  5
F7
330
1F
100
AcDbEntity
  8
0
  6
Continuous
 62
     7
100
AcDbCircle
 10
125.1843790416
 20
17.7504923247
 30
0.0
 40
3.17499999999999
  0
ARC
  5
F8
330
1F
100
AcDbEntity
  8
0
  6
Continuous
 62
     7
100
AcDbCircle
 10
125.6032786123
 20
23.990949899
 30
0.0
 40
2.000000000000001
100
AcDbArc
 50
52.405635002
 51
123.5006336992
  0
ARC
  5
F9
330
1F
100
AcDbEntity
  8
0
  6
Continuous
 62
     7
100
AcDbCircle
 10
114.2039510102
 20
10.914446368
 30
0.0
 40
20.0
100
AcDbArc
 50
270.0
 51
322.2059089231
  0
LINE
  5
FA
330
1F
100
AcDbEntity
  8
0
  6
Continuous
 62
     7
100
AcDbLine
 10
79.2039510102
 20
10.914446368
 30
0.0
 11
79.2039602912
 21
10.8951787196
 31
0.0
  0
ARC
  5
FB
330
1F
100
AcDbEntity
  8
0
  6
Continuous
 62
     7
100
AcDbCircle
 10
137.9104975315
 20
-7.4703204794
 30
0.0
 40
9.99999999999999
100
AcDbArc
 50
116.6174455077
 51
142.2059089231
  0
CIRCLE
  5
FC
330
1F
100
AcDbEntity
  8
0
  6
Continuous
 62
     7
100
AcDbCircle
 10
125.1843790416
 20
17.7504923247
 30
0.0
 40
4.762499999999977
  0
ARC
  5
FD
330
1F
100
AcDbEntity
  8
0
  6
Continuous
 62
     7
100
AcDbCircle
 10
81.7039510102
 20
31.914446368
 30
0.0
 40
7.99999999999998
100
AcDbArc
 50
267.1340160174
 51
307.594364998
  0
ARC
  5
FE
330
1F
100
AcDbEntity
  8
0
  6
Continuous
 62
     7
100
AcDbCircle
 10
75.4974044888
 20
-7.4703204794
 30
0.0
 40
10.0
100
AcDbArc
 50
37.7940910769
 51
63.3825544923
  0
ARC
  5
FF
330
1F
100
AcDbEntity
  8
0
  6
Continuous
 62
     7
100
AcDbCircle
 10
69.2039649318
 20
10.8855448954
 30
0.0
 40
10.0
100
AcDbArc
 50
334.4667343398
 51
0.0551977552
  0
ARC
  5
100
330
1F
100
AcDbEntity
  8
0
  6
Continuous
 62
     7
100
AcDbCircle
 10
100.0259033164
 20
-14.085553632
 30
0.0
 40
5.000000000000002
100
AcDbArc
 50
32.1668681727
 51
90.0
  0
ARC
  5
101
330
1F
100
AcDbEntity
  8
0
  6
Continuous
 62
     7
100
AcDbCircle
 10
94.7039510102
 20
34.414446368
 30
0.0
 40
10.5
100
AcDbArc
 50
236.4993663008
 51
270.0
  0
ARC
  5
102
330
1F
100
AcDbEntity
  8
0
  6
Continuous
 62
     7
100
AcDbCircle
 10
81.7039510102
 20
4.914446368
 30
0.0
 40
3.852929999999984
100
AcDbArc
 50
154.4667343398
 51
243.3825544923
  0
ARC
  5
103
330
1F
100
AcDbEntity
  8
0
  6
Continuous
 62
     7
100
AcDbCircle
 10
131.7039510102
 20
4.914446368
 30
0.0
 40
3.852929999999996
100
AcDbArc
 50
296.6174455077
 51
25.5332656602
  0
ARC
  5
104
330
1F
100
AcDbEntity
  8
0
  6
Continuous
 62
     7
100
AcDbCircle
 10
106.7039510102
 20
-9.885553632
 30
0.0
 40
2.889000000000002
100
AcDbArc
 50
212.1668681727
 51
327.8331318273
  0
ARC
  5
105
330
1F
100
AcDbEntity
  8
0
  6
Continuous
 62
     7
100
AcDbCircle
 10
132.2039510102
 20
21.9269541903
 30
0.0
 40
2.0
100
AcDbArc
 50
0.0
 51
92.8659839826
  0
ARC
  5
106
330
1F
100
AcDbEntity
  8
0
  6
Continuous
 62
     7
100
AcDbCircle
 10
113.3819987039
 20
-14.085553632
 30
0.0
 40
5.000000000000002
100
AcDbArc
 50
90.0
 51
147.8331318273
  0
ARC
  5
107
330
1F
100
AcDbEntity
  8
0
  6
Continuous
 62
     7
100
AcDbCircle
 10
56.7039510102
 20
34.914446368
 30
0.0
 40
7.5
100
AcDbArc
 50
0.0
 51
180.0
  0
ARC
  5
108
330
1F
100
AcDbEntity
  8
0
  6
Continuous
 62
     7
100
AcDbCircle
 10
56.7039510102
 20
-6.585553632
 30
0.0
 40
7.500000000000007
100
AcDbArc
 50
180.0
 51
0.0
  0
ARC
  5
109
330
1F
100
AcDbEntity
  8
0
  6
Continuous
 62
     7
100
AcDbCircle
 10
101.3922371527
 20
19.5548331533
 30
0.0
 40
2.499999999999994
100
AcDbArc
 50
226.6582417728
 51
133.3417582272
  0
ARC
  5
10A
330
1F
100
AcDbEntity
  8
0
  6
Continuous
 62
     7
100
AcDbCircle
 10
95.2692538065
 20
19.3048331533
 30
0.0
 40
0.75
100
AcDbArc
 50
180.0
 51
270.0
  0
ARC
  5
10B
330
1F
100
AcDbEntity
  8
0
  6
Continuous
 62
     7
100
AcDbCircle
 10
95.2692538065
 20
19.8048331533
 30
0.0
 40
0.7500000000000036
100
AcDbArc
 50
90.0
 51
180.0
  0
ARC
  5
10C
330
1F
100
AcDbEntity
  8
0
  6
Continuous
 62
     7
100
AcDbCircle
 10
97.6173199351
 20
15.5548331533
 30
0.0
 40
3.000000000000006
100
AcDbArc
 50
46.6582417728
 51
90.0
  0
ARC
  5
10D
330
1F
100
AcDbEntity
  8
0
  6
Continuous
 62
     7
100
AcDbCircle
 10
-20.7960489898
 20
34.914446368
 30
0.0
 40
15.00000000000004
100
AcDbArc
 50
90.0
 51
180.0
  0
ARC
  5
10E
330
1F
100
AcDbEntity
  8
0
  6
Continuous
 62
     7
100
AcDbCircle
 10
-20.7960489898
 20
-6.585553632
 30
0.0
 40
15.0
100
AcDbArc
 50
180.0
 51
270.0
  0
ARC
  5
10F
330
1F
100
AcDbEntity
  8
0
  6
Continuous
 62
     7
100
AcDbCircle
 10
334.2039510102
 20
-6.585553632
 30
0.0
 40
15.0
100
AcDbArc
 50
270.0
 51
0.0
  0
ARC
  5
110
330
1F
100
AcDbEntity
  8
0
  6
Continuous
 62
     7
100
AcDbCircle
 10
334.2039510102
 20
34.914446368
 30
0.0
 40
15.0
100
AcDbArc
 50
0.0
 51
90.0
  0
CIRCLE
  5
111
330
1F
100
AcDbEntity
  8
0
  6
Continuous
 62
     7
100
AcDbCircle
 10
-18.2960489898
 20
33.414446368
 30
0.0
 40
0.8890000000000015
  0
CIRCLE
  5
112
330
1F
100
AcDbEntity
  8
0
  6
Continuous
 62
     7
100
AcDbCircle
 10
31.7039510102
 20
33.414446368
 30
0.0
 40
0.8890000000000027
  0
CIRCLE
  5
113
330
1F
100
AcDbEntity
  8
0
  6
Continuous
 62
     7
100
AcDbCircle
 10
14.2039510102
 20
-17.6202999377
 30
0.0
 40
0.8890000000000015
  0
CIRCLE
  5
114
330
1F
100
AcDbEntity
  8
0
  6
Continuous
 62
     7
100
AcDbCircle
 10
-0.7960489898
 20
-17.6202999377
 30
0.0
 40
0.889
  0
ARC
  5
115
330
1F
100
AcDbEntity
  8
0
  6
Continuous
 62
     7
100
AcDbCircle
 10
97.6173199351
 20
23.5548331533
 30
0.0
 40
3.000000000000007
100
AcDbArc
 50
270.0
 51
313.3417582272
  0
CIRCLE
  5
116
330
1F
100
AcDbEntity
  8
0
  6
Continuous
 62
     7
100
AcDbCircle
 10
101.3922371527
 20
19.5548331533
 30
0.0
 40
1.092199999999994
  0
ARC
  5
117
330
1F
100
AcDbEntity
  8
0
  6
Continuous
 62
     7
100
AcDbCircle
 10
156.7039510102
 20
34.914446368
 30
0.0
 40
7.500000000000028
100
AcDbArc
 50
0.0
 51
180.0
  0
ARC
  5
118
330
1F
100
AcDbEntity
  8
0
  6
Continuous
 62
     7
100
AcDbCircle
 10
156.7039510102
 20
-6.585553632
 30
0.0
 40
7.500000000000028
100
AcDbArc
 50
180.0
 51
0.0
  0
CIRCLE
  5
119
330
1F
100
AcDbEntity
  8
0
  6
Continuous
 62
     7
100
AcDbCircle
 10
81.7039510102
 20
33.414446368
 30
0.0
 40
0.8890000000000015
  0
CIRCLE
  5
11A
330
1F
100
AcDbEntity
  8
0
  6
Continuous
 62
     7
100
AcDbCircle
 10
131.7039510102
 20
33.414446368
 30
0.0
 40
0.8889999999999857
  0
CIRCLE
  5
11B
330
1F
100
AcDbEntity
  8
0
  6
Continuous
 62
     7
100
AcDbCircle
 10
114.2039510102
 20
-17.6202999377
 30
0.0
 40
0.8890000000000015
  0
CIRCLE
  5
11C
330
1F
100
AcDbEntity
  8
0
  6
Continuous
 62
     7
100
AcDbCircle
 10
99.2039510102
 20
-17.6202999377
 30
0.0
 40
0.8890000000000149
  0
ARC
  5
11D
330
1F
100
AcDbEntity
  8
0
  6
Continuous
 62
     7
100
AcDbCircle
 10
218.7039510102
 20
34.414446368
 30
0.0
 40
10.50000000000001
100
AcDbArc
 50
270.0
 51
303.5006336992
  0
LINE
  5
11E
330
1F
100
AcDbEntity
  8
0
  6
Continuous
 62
     7
100
AcDbLine
 10
234.2039417291
 20
10.8951787196
 30
0.0
 11
234.2039510102
 21
10.914446368
 31
0.0
  0
ARC
  5
11F
330
1F
100
AcDbEntity
  8
0
  6
Continuous
 62
     7
100
AcDbCircle
 10
197.6173199351
 20
17.3388032444
 30
0.0
 40
3.000000000000018
100
AcDbArc
 50
270.0
 51
313.3417582272
  0
CIRCLE
  5
120
330
1F
100
AcDbEntity
  8
0
  6
Continuous
 62
     7
100
AcDbCircle
 10
201.3922371527
 20
13.3388032444
 30
0.0
 40
1.092199999999993
  0
ARC
  5
121
330
1F
100
AcDbEntity
  8
0
  6
Continuous
 62
     7
100
AcDbCircle
 10
201.3922371527
 20
13.3388032444
 30
0.0
 40
2.499999999999994
100
AcDbArc
 50
226.6582417728
 51
133.3417582272
  0
ARC
  5
122
330
1F
100
AcDbEntity
  8
0
  6
Continuous
 62
     7
100
AcDbCircle
 10
197.6173199351
 20
9.3388032444
 30
0.0
 40
3.000000000000017
100
AcDbArc
 50
46.6582417728
 51
90.0
  0
ARC
  5
123
330
1F
100
AcDbEntity
  8
0
  6
Continuous
 62
     7
100
AcDbCircle
 10
199.2039510102
 20
10.914446368
 30
0.0
 40
20.0
100
AcDbArc
 50
217.7940910769
 51
270.0
  0
ARC
  5
124
330
1F
100
AcDbEntity
  8
0
  6
Continuous
 62
     7
100
AcDbCircle
 10
244.2039370886
 20
10.8855448954
 30
0.0
 40
9.999999999999988
100
AcDbArc
 50
179.9448022448
 51
205.5332656602
  0
ARC
  5
125
330
1F
100
AcDbEntity
  8
0
  6
Continuous
 62
     7
100
AcDbCircle
 10
195.2692538065
 20
13.5888032444
 30
0.0
 40
0.75
100
AcDbArc
 50
90.0
 51
180.0
  0
ARC
  5
126
330
1F
100
AcDbEntity
  8
0
  6
Continuous
 62
     7
100
AcDbCircle
 10
195.2692538065
 20
13.0888032444
 30
0.0
 40
0.7500000000000018
100
AcDbArc
 50
180.0
 51
270.0
  0
ARC
  5
127
330
1F
100
AcDbEntity
  8
0
  6
Continuous
 62
     7
100
AcDbCircle
 10
197.6173199351
 20
11.1227733355
 30
0.0
 40
2.999999999999999
100
AcDbArc
 50
270.0
 51
313.3417582272
  0
CIRCLE
  5
128
330
1F
100
AcDbEntity
  8
0
  6
Continuous
 62
     7
100
AcDbCircle
 10
201.3922371527
 20
7.1227733355
 30
0.0
 40
1.092199999999993
  0
ARC
  5
129
330
1F
100
AcDbEntity
  8
0
  6
Continuous
 62
     7
100
AcDbCircle
 10
201.3922371527
 20
7.1227733355
 30
0.0
 40
2.500000000000013
100
AcDbArc
 50
226.6582417728
 51
133.3417582272
  0
ARC
  5
12A
330
1F
100
AcDbEntity
  8
0
  6
Continuous
 62
     7
100
AcDbCircle
 10
197.6173199351
 20
3.1227733355
 30
0.0
 40
2.999999999999998
100
AcDbArc
 50
46.6582417728
 51
90.0
  0
ARC
  5
12B
330
1F
100
AcDbEntity
  8
0
  6
Continuous
 62
     7
100
AcDbCircle
 10
195.2692538065
 20
7.3727733355
 30
0.0
 40
0.75
100
AcDbArc
 50
90.0
 51
180.0
  0
ARC
  5
12C
330
1F
100
AcDbEntity
  8
0
  6
Continuous
 62
     7
100
AcDbCircle
 10
195.2692538065
 20
6.8727733355
 30
0.0
 40
0.7500000000000009
100
AcDbArc
 50
180.0
 51
270.0
  0
ARC
  5
12D
330
1F
100
AcDbEntity
  8
0
  6
Continuous
 62
     7
100
AcDbCircle
 10
197.6173199351
 20
4.9067434267
 30
0.0
 40
2.999999999999996
100
AcDbArc
 50
270.0
 51
313.3417582272
  0
CIRCLE
  5
12E
330
1F
100
AcDbEntity
  8
0
  6
Continuous
 62
     7
100
AcDbCircle
 10
201.3922371527
 20
0.9067434267
 30
0.0
 40
1.092199999999993
  0
ARC
  5
12F
330
1F
100
AcDbEntity
  8
0
  6
Continuous
 62
     7
100
AcDbCircle
 10
201.3922371527
 20
0.9067434267
 30
0.0
 40
2.500000000000013
100
AcDbArc
 50
226.6582417728
 51
133.3417582272
  0
ARC
  5
130
330
1F
100
AcDbEntity
  8
0
  6
Continuous
 62
     7
100
AcDbCircle
 10
197.6173199351
 20
-3.0932565733
 30
0.0
 40
2.999999999999996
100
AcDbArc
 50
46.6582417728
 51
90.0
  0
ARC
  5
131
330
1F
100
AcDbEntity
  8
0
  6
Continuous
 62
     7
100
AcDbCircle
 10
195.2692538065
 20
1.1567434267
 30
0.0
 40
0.7500000000000007
100
AcDbArc
 50
90.0
 51
180.0
  0
ARC
  5
132
330
1F
100
AcDbEntity
  8
0
  6
Continuous
 62
     7
100
AcDbCircle
 10
195.2692538065
 20
0.6567434267
 30
0.0
 40
0.7500000000000007
100
AcDbArc
 50
180.0
 51
270.0
  0
CIRCLE
  5
133
330
1F
100
AcDbEntity
  8
0
  6
Continuous
 62
     7
100
AcDbCircle
 10
225.6560711303
 20
5.8291077444
 30
0.0
 40
3.17500000000003
  0
CIRCLE
  5
134
330
1F
100
AcDbEntity
  8
0
  6
Continuous
 62
     7
100
AcDbCircle
 10
225.6560711303
 20
5.8291077444
 30
0.0
 40
4.762500000000018
  0
ARC
  5
135
330
1F
100
AcDbEntity
  8
0
  6
Continuous
 62
     7
100
AcDbCircle
 10
187.804623408
 20
23.990949899
 30
0.0
 40
1.999999999999999
100
AcDbArc
 50
56.4993663008
 51
127.594364998
  0
ARC
  5
136
330
1F
100
AcDbEntity
  8
0
  6
Continuous
 62
     7
100
AcDbCircle
 10
181.2039510102
 20
21.9269541903
 30
0.0
 40
2.0
100
AcDbArc
 50
87.1340160174
 51
180.0
  0
ARC
  5
137
330
1F
100
AcDbEntity
  8
0
  6
Continuous
 62
     7
100
AcDbCircle
 10
231.7039510102
 20
31.914446368
 30
0.0
 40
8.00000000000001
100
AcDbArc
 50
232.405635002
 51
272.8659839826
  0
CIRCLE
  5
138
330
1F
100
AcDbEntity
  8
0
  6
Continuous
 62
     7
100
AcDbCircle
 10
225.1843790416
 20
17.7504923247
 30
0.0
 40
3.175000000000004
  0
ARC
  5
139
330
1F
100
AcDbEntity
  8
0
  6
Continuous
 62
     7
100
AcDbCircle
 10
225.6032786123
 20
23.990949899
 30
0.0
 40
2.000000000000012
100
AcDbArc
 50
52.405635002
 51
123.5006336992
  0
ARC
  5
13A
330
1F
100
AcDbEntity
  8
0
  6
Continuous
 62
     7
100
AcDbCircle
 10
214.2039510102
 20
10.914446368
 30
0.0
 40
20.0
100
AcDbArc
 50
270.0
 51
322.2059089231
  0
LINE
  5
13B
330
1F
100
AcDbEntity
  8
0
  6
Continuous
 62
     7
100
AcDbLine
 10
179.2039510102
 20
10.914446368
 30
0.0
 11
179.2039602912
 21
10.8951787196
 31
0.0
  0
ARC
  5
13C
330
1F
100
AcDbEntity
  8
0
  6
Continuous
 62
     7
100
AcDbCircle
 10
237.9104975315
 20
-7.4703204794
 30
0.0
 40
10.00000000000001
100
AcDbArc
 50
116.6174455077
 51
142.2059089231
  0
CIRCLE
  5
13D
330
1F
100
AcDbEntity
  8
0
  6
Continuous
 62
     7
100
AcDbCircle
 10
225.1843790416
 20
17.7504923247
 30
0.0
 40
4.762500000000018
  0
ARC
  5
13E
330
1F
100
AcDbEntity
  8
0
  6
Continuous
 62
     7
100
AcDbCircle
 10
181.7039510102
 20
31.914446368
 30
0.0
 40
7.999999999999986
100
AcDbArc
 50
267.1340160174
 51
307.594364998
  0
ARC
  5
13F
330
1F
100
AcDbEntity
  8
0
  6
Continuous
 62
     7
100
AcDbCircle
 10
175.4974044888
 20
-7.4703204794
 30
0.0
 40
10.00000000000001
100
AcDbArc
 50
37.7940910769
 51
63.3825544923
  0
ARC
  5
140
330
1F
100
AcDbEntity
  8
0
  6
Continuous
 62
     7
100
AcDbCircle
 10
169.2039649318
 20
10.8855448954
 30
0.0
 40
9.99999999999999
100
AcDbArc
 50
334.4667343398
 51
0.0551977552
  0
ARC
  5
141
330
1F
100
AcDbEntity
  8
0
  6
Continuous
 62
     7
100
AcDbCircle
 10
200.0259033164
 20
-14.085553632
 30
0.0
 40
5.000000000000008
100
AcDbArc
 50
32.1668681727
 51
90.0
  0
ARC
  5
142
330
1F
100
AcDbEntity
  8
0
  6
Continuous
 62
     7
100
AcDbCircle
 10
194.7039510102
 20
34.414446368
 30
0.0
 40
10.5
100
AcDbArc
 50
236.4993663008
 51
270.0
  0
ARC
  5
143
330
1F
100
AcDbEntity
  8
0
  6
Continuous
 62
     7
100
AcDbCircle
 10
181.7039510102
 20
4.914446368
 30
0.0
 40
3.852929999999991
100
AcDbArc
 50
154.4667343398
 51
243.3825544923
  0
ARC
  5
144
330
1F
100
AcDbEntity
  8
0
  6
Continuous
 62
     7
100
AcDbCircle
 10
231.7039510102
 20
4.914446368
 30
0.0
 40
3.85293000000003
100
AcDbArc
 50
296.6174455077
 51
25.5332656602
  0
ARC
  5
145
330
1F
100
AcDbEntity
  8
0
  6
Continuous
 62
     7
100
AcDbCircle
 10
206.7039510102
 20
-9.885553632
 30
0.0
 40
2.88899999999999
100
AcDbArc
 50
212.1668681727
 51
327.8331318273
  0
ARC
  5
146
330
1F
100
AcDbEntity
  8
0
  6
Continuous
 62
     7
100
AcDbCircle
 10
232.2039510102
 20
21.9269541903
 30
0.0
 40
2.0
100
AcDbArc
 50
0.0
 51
92.8659839826
  0
ARC
  5
147
330
1F
100
AcDbEntity
  8
0
  6
Continuous
 62
     7
100
AcDbCircle
 10
213.3819987039
 20
-14.085553632
 30
0.0
 40
5.000000000000002
100
AcDbArc
 50
90.0
 51
147.8331318273
  0
ARC
  5
148
330
1F
100
AcDbEntity
  8
0
  6
Continuous
 62
     7
100
AcDbCircle
 10
201.3922371527
 20
19.5548331533
 30
0.0
 40
2.500000000000013
100
AcDbArc
 50
226.6582417728
 51
133.3417582272
  0
ARC
  5
149
330
1F
100
AcDbEntity
  8
0
  6
Continuous
 62
     7
100
AcDbCircle
 10
195.2692538065
 20
19.3048331533
 30
0.0
 40
0.75
100
AcDbArc
 50
180.0
 51
270.0
  0
ARC
  5
14A
330
1F
100
AcDbEntity
  8
0
  6
Continuous
 62
     7
100
AcDbCircle
 10
195.2692538065
 20
19.8048331533
 30
0.0
 40
0.7500000000000036
100
AcDbArc
 50
90.0
 51
180.0
  0
ARC
  5
14B
330
1F
100
AcDbEntity
  8
0
  6
Continuous
 62
     7
100
AcDbCircle
 10
197.6173199351
 20
15.5548331533
 30
0.0
 40
2.999999999999996
100
AcDbArc
 50
46.6582417728
 51
90.0
  0
ARC
  5
14C
330
1F
100
AcDbEntity
  8
0
  6
Continuous
 62
     7
100
AcDbCircle
 10
197.6173199351
 20
23.5548331533
 30
0.0
 40
2.999999999999998
100
AcDbArc
 50
270.0
 51
313.3417582272
  0
CIRCLE
  5
14D
330
1F
100
AcDbEntity
  8
0
  6
Continuous
 62
     7
100
AcDbCircle
 10
201.3922371527
 20
19.5548331533
 30
0.0
 40
1.092199999999967
  0
ARC
  5
14E
330
1F
100
AcDbEntity
  8
0
  6
Continuous
 62
     7
100
AcDbCircle
 10
256.7039510102
 20
34.914446368
 30
0.0
 40
7.5
100
AcDbArc
 50
0.0
 51
180.0
  0
ARC
  5
14F
330
1F
100
AcDbEntity
  8
0
  6
Continuous
 62
     7
100
AcDbCircle
 10
256.7039510102
 20
-6.585553632
 30
0.0
 40
7.5
100
AcDbArc
 50
180.0
 51
0.0
  0
CIRCLE
  5
150
330
1F
100
AcDbEntity
  8
0
  6
Continuous
 62
     7
100
AcDbCircle
 10
181.7039510102
 20
33.414446368
 30
0.0
 40
0.8889999999999878
  0
CIRCLE
  5
151
330
1F
100
AcDbEntity
  8
0
  6
Continuous
 62
     7
100
AcDbCircle
 10
231.7039510102
 20
33.414446368
 30
0.0
 40
0.8890000000000128
  0
CIRCLE
  5
152
330
1F
100
AcDbEntity
  8
0
  6
Continuous
 62
     7
100
AcDbCircle
 10
214.2039510102
 20
-17.6202999377
 30
0.0
 40
0.8890000000000149
  0
CIRCLE
  5
153
330
1F
100
AcDbEntity
  8
0
  6
Continuous
 62
     7
100
AcDbCircle
 10
199.2039510102
 20
-17.6202999377
 30
0.0
 40
0.8890000000000149
  0
ARC
  5
154
330
1F
100
AcDbEntity
  8
0
  6
Continuous
 62
     7
100
AcDbCircle
 10
318.7039510102
 20
34.414446368
 30
0.0
 40
10.50000000000001
100
AcDbArc
 50
270.0
 51
303.5006336992
  0
LINE
  5
155
330
1F
100
AcDbEntity
  8
0
  6
Continuous
 62
     7
100
AcDbLine
 10
334.2039417291
 20
10.8951787196
 30
0.0
 11
334.2039510102
 21
10.914446368
 31
0.0
  0
ARC
  5
156
330
1F
100
AcDbEntity
  8
0
  6
Continuous
 62
     7
100
AcDbCircle
 10
297.6173199351
 20
17.3388032444
 30
0.0
 40
2.999999999999999
100
AcDbArc
 50
270.0
 51
313.3417582272
  0
CIRCLE
  5
157
330
1F
100
AcDbEntity
  8
0
  6
Continuous
 62
     7
100
AcDbCircle
 10
301.3922371527
 20
13.3388032444
 30
0.0
 40
1.09220000000002
  0
ARC
  5
158
330
1F
100
AcDbEntity
  8
0
  6
Continuous
 62
     7
100
AcDbCircle
 10
301.3922371527
 20
13.3388032444
 30
0.0
 40
2.499999999999974
100
AcDbArc
 50
226.6582417728
 51
133.3417582272
  0
ARC
  5
159
330
1F
100
AcDbEntity
  8
0
  6
Continuous
 62
     7
100
AcDbCircle
 10
297.6173199351
 20
9.3388032444
 30
0.0
 40
2.999999999999998
100
AcDbArc
 50
46.6582417728
 51
90.0
  0
ARC
  5
15A
330
1F
100
AcDbEntity
  8
0
  6
Continuous
 62
     7
100
AcDbCircle
 10
299.2039510102
 20
10.914446368
 30
0.0
 40
20.00000000000002
100
AcDbArc
 50
217.7940910769
 51
270.0
  0
ARC
  5
15B
330
1F
100
AcDbEntity
  8
0
  6
Continuous
 62
     7
100
AcDbCircle
 10
344.2039370886
 20
10.8855448954
 30
0.0
 40
9.99999999999996
100
AcDbArc
 50
179.9448022448
 51
205.5332656602
  0
ARC
  5
15C
330
1F
100
AcDbEntity
  8
0
  6
Continuous
 62
     7
100
AcDbCircle
 10
295.2692538065
 20
13.5888032444
 30
0.0
 40
0.75
100
AcDbArc
 50
90.0
 51
180.0
  0
ARC
  5
15D
330
1F
100
AcDbEntity
  8
0
  6
Continuous
 62
     7
100
AcDbCircle
 10
295.2692538065
 20
13.0888032444
 30
0.0
 40
0.7500000000000018
100
AcDbArc
 50
180.0
 51
270.0
  0
ARC
  5
15E
330
1F
100
AcDbEntity
  8
0
  6
Continuous
 62
     7
100
AcDbCircle
 10
297.6173199351
 20
11.1227733355
 30
0.0
 40
2.999999999999999
100
AcDbArc
 50
270.0
 51
313.3417582272
  0
CIRCLE
  5
15F
330
1F
100
AcDbEntity
  8
0
  6
Continuous
 62
     7
100
AcDbCircle
 10
301.3922371527
 20
7.1227733355
 30
0.0
 40
1.09220000000002
  0
ARC
  5
160
330
1F
100
AcDbEntity
  8
0
  6
Continuous
 62
     7
100
AcDbCircle
 10
301.3922371527
 20
7.1227733355
 30
0.0
 40
2.499999999999974
100
AcDbArc
 50
226.6582417728
 51
133.3417582272
  0
ARC
  5
161
330
1F
100
AcDbEntity
  8
0
  6
Continuous
 62
     7
100
AcDbCircle
 10
297.6173199351
 20
3.1227733355
 30
0.0
 40
2.999999999999998
100
AcDbArc
 50
46.6582417728
 51
90.0
  0
ARC
  5
162
330
1F
100
AcDbEntity
  8
0
  6
Continuous
 62
     7
100
AcDbCircle
 10
295.2692538065
 20
7.3727733355
 30
0.0
 40
0.75
100
AcDbArc
 50
90.0
 51
180.0
  0
ARC
  5
163
330
1F
100
AcDbEntity
  8
0
  6
Continuous
 62
     7
100
AcDbCircle
 10
295.2692538065
 20
6.8727733355
 30
0.0
 40
0.7500000000000009
100
AcDbArc
 50
180.0
 51
270.0
  0
ARC
  5
164
330
1F
100
AcDbEntity
  8
0
  6
Continuous
 62
     7
100
AcDbCircle
 10
297.6173199351
 20
4.9067434267
 30
0.0
 40
2.999999999999998
100
AcDbArc
 50
270.0
 51
313.3417582272
  0
CIRCLE
  5
165
330
1F
100
AcDbEntity
  8
0
  6
Continuous
 62
     7
100
AcDbCircle
 10
301.3922371527
 20
0.9067434267
 30
0.0
 40
1.09220000000002
  0
ARC
  5
166
330
1F
100
AcDbEntity
  8
0
  6
Continuous
 62
     7
100
AcDbCircle
 10
301.3922371527
 20
0.9067434267
 30
0.0
 40
2.499999999999974
100
AcDbArc
 50
226.6582417728
 51
133.3417582272
  0
ARC
  5
167
330
1F
100
AcDbEntity
  8
0
  6
Continuous
 62
     7
100
AcDbCircle
 10
297.6173199351
 20
-3.0932565733
 30
0.0
 40
2.999999999999998
100
AcDbArc
 50
46.6582417728
 51
90.0
  0
ARC
  5
168
330
1F
100
AcDbEntity
  8
0
  6
Continuous
 62
     7
100
AcDbCircle
 10
295.2692538065
 20
1.1567434267
 30
0.0
 40
0.7500000000000007
100
AcDbArc
 50
90.0
 51
180.0
  0
ARC
  5
169
330
1F
100
AcDbEntity
  8
0
  6
Continuous
 62
     7
100
AcDbCircle
 10
295.2692538065
 20
0.6567434267
 30
0.0
 40
0.7500000000000007
100
AcDbArc
 50
180.0
 51
270.0
  0
CIRCLE
  5
16A
330
1F
100
AcDbEntity
  8
0
  6
Continuous
 62
     7
100
AcDbCircle
 10
325.6560711303
 20
5.8291077444
 30
0.0
 40
3.17500000000003
  0
CIRCLE
  5
16B
330
1F
100
AcDbEntity
  8
0
  6
Continuous
 62
     7
100
AcDbCircle
 10
325.6560711303
 20
5.8291077444
 30
0.0
 40
4.762500000000045
  0
ARC
  5
16C
330
1F
100
AcDbEntity
  8
0
  6
Continuous
 62
     7
100
AcDbCircle
 10
287.804623408
 20
23.990949899
 30
0.0
 40
2.000000000000015
100
AcDbArc
 50
56.4993663008
 51
127.594364998
  0
ARC
  5
16D
330
1F
100
AcDbEntity
  8
0
  6
Continuous
 62
     7
100
AcDbCircle
 10
281.2039510102
 20
21.9269541903
 30
0.0
 40
2.000000000000004
100
AcDbArc
 50
87.1340160174
 51
180.0
  0
ARC
  5
16E
330
1F
100
AcDbEntity
  8
0
  6
Continuous
 62
     7
100
AcDbCircle
 10
331.7039510102
 20
31.914446368
 30
0.0
 40
7.999999999999988
100
AcDbArc
 50
232.405635002
 51
272.8659839826
  0
CIRCLE
  5
16F
330
1F
100
AcDbEntity
  8
0
  6
Continuous
 62
     7
100
AcDbCircle
 10
325.1843790416
 20
17.7504923247
 30
0.0
 40
3.174999999999922
  0
ARC
  5
170
330
1F
100
AcDbEntity
  8
0
  6
Continuous
 62
     7
100
AcDbCircle
 10
325.6032786123
 20
23.990949899
 30
0.0
 40
2.000000000000019
100
AcDbArc
 50
52.405635002
 51
123.5006336992
  0
ARC
  5
171
330
1F
100
AcDbEntity
  8
0
  6
Continuous
 62
     7
100
AcDbCircle
 10
314.2039510102
 20
10.914446368
 30
0.0
 40
20.0
100
AcDbArc
 50
270.0
 51
322.2059089231
  0
LINE
  5
172
330
1F
100
AcDbEntity
  8
0
  6
Continuous
 62
     7
100
AcDbLine
 10
279.2039510102
 20
10.914446368
 30
0.0
 11
279.2039602912
 21
10.8951787196
 31
0.0
  0
ARC
  5
173
330
1F
100
AcDbEntity
  8
0
  6
Continuous
 62
     7
100
AcDbCircle
 10
337.9104975315
 20
-7.4703204794
 30
0.0
 40
10.00000000000002
100
AcDbArc
 50
116.6174455077
 51
142.2059089231
  0
CIRCLE
  5
174
330
1F
100
AcDbEntity
  8
0
  6
Continuous
 62
     7
100
AcDbCircle
 10
325.1843790416
 20
17.7504923247
 30
0.0
 40
4.762499999999991
  0
ARC
  5
175
330
1F
100
AcDbEntity
  8
0
  6
Continuous
 62
     7
100
AcDbCircle
 10
281.7039510102
 20
31.914446368
 30
0.0
 40
8.00000000000002
100
AcDbArc
 50
267.1340160174
 51
307.594364998
  0
ARC
  5
176
330
1F
100
AcDbEntity
  8
0
  6
Continuous
 62
     7
100
AcDbCircle
 10
275.4974044888
 20
-7.4703204794
 30
0.0
 40
9.999999999999986
100
AcDbArc
 50
37.7940910769
 51
63.3825544923
  0
ARC
  5
177
330
1F
100
AcDbEntity
  8
0
  6
Continuous
 62
     7
100
AcDbCircle
 10
269.2039649318
 20
10.8855448954
 30
0.0
 40
9.99999999999999
100
AcDbArc
 50
334.4667343398
 51
0.0551977552
  0
ARC
  5
178
330
1F
100
AcDbEntity
  8
0
  6
Continuous
 62
     7
100
AcDbCircle
 10
300.0259033164
 20
-14.085553632
 30
0.0
 40
5.000000000000056
100
AcDbArc
 50
32.1668681727
 51
90.0
  0
ARC
  5
179
330
1F
100
AcDbEntity
  8
0
  6
Continuous
 62
     7
100
AcDbCircle
 10
294.7039510102
 20
34.414446368
 30
0.0
 40
10.5
100
AcDbArc
 50
236.4993663008
 51
270.0
  0
ARC
  5
17A
330
1F
100
AcDbEntity
  8
0
  6
Continuous
 62
     7
100
AcDbCircle
 10
281.7039510102
 20
4.914446368
 30
0.0
 40
3.852930000000004
100
AcDbArc
 50
154.4667343398
 51
243.3825544923
  0
ARC
  5
17B
330
1F
100
AcDbEntity
  8
0
  6
Continuous
 62
     7
100
AcDbCircle
 10
331.7039510102
 20
4.914446368
 30
0.0
 40
3.852930000000005
100
AcDbArc
 50
296.6174455077
 51
25.5332656602
  0
ARC
  5
17C
330
1F
100
AcDbEntity
  8
0
  6
Continuous
 62
     7
100
AcDbCircle
 10
306.7039510102
 20
-9.885553632
 30
0.0
 40
2.889000000000014
100
AcDbArc
 50
212.1668681727
 51
327.8331318273
  0
ARC
  5
17D
330
1F
100
AcDbEntity
  8
0
  6
Continuous
 62
     7
100
AcDbCircle
 10
332.2039510102
 20
21.9269541903
 30
0.0
 40
2.000000000000001
100
AcDbArc
 50
0.0
 51
92.8659839826
  0
ARC
  5
17E
330
1F
100
AcDbEntity
  8
0
  6
Continuous
 62
     7
100
AcDbCircle
 10
313.3819987039
 20
-14.085553632
 30
0.0
 40
5.000000000000002
100
AcDbArc
 50
90.0
 51
147.8331318273
  0
ARC
  5
17F
330
1F
100
AcDbEntity
  8
0
  6
Continuous
 62
     7
100
AcDbCircle
 10
301.3922371527
 20
19.5548331533
 30
0.0
 40
2.499999999999974
100
AcDbArc
 50
226.6582417728
 51
133.3417582272
  0
ARC
  5
180
330
1F
100
AcDbEntity
  8
0
  6
Continuous
 62
     7
100
AcDbCircle
 10
295.2692538065
 20
19.3048331533
 30
0.0
 40
0.7500000000000568
100
AcDbArc
 50
180.0
 51
270.0
  0
ARC
  5
181
330
1F
100
AcDbEntity
  8
0
  6
Continuous
 62
     7
100
AcDbCircle
 10
295.2692538065
 20
19.8048331533
 30
0.0
 40
0.7500000000000568
100
AcDbArc
 50
90.0
 51
180.0
  0
ARC
  5
182
330
1F
100
AcDbEntity
  8
0
  6
Continuous
 62
     7
100
AcDbCircle
 10
297.6173199351
 20
15.5548331533
 30
0.0
 40
3.000000000000035
100
AcDbArc
 50
46.6582417728
 51
90.0
  0
ARC
  5
183
330
1F
100
AcDbEntity
  8
0
  6
Continuous
 62
     7
100
AcDbCircle
 10
297.6173199351
 20
23.5548331533
 30
0.0
 40
3.000000000000036
100
AcDbArc
 50
270.0
 51
313.3417582272
  0
CIRCLE
  5
184
330
1F
100
AcDbEntity
  8
0
  6
Continuous
 62
     7
100
AcDbCircle
 10
301.3922371527
 20
19.5548331533
 30
0.0
 40
1.092200000000021
  0
CIRCLE
  5
185
330
1F
100
AcDbEntity
  8
0
  6
Continuous
 62
     7
100
AcDbCircle
 10
281.7039510102
 20
33.414446368
 30
0.0
 40
0.8890000000000693
  0
CIRCLE
  5
186
330
1F
100
AcDbEntity
  8
0
  6
Continuous
 62
     7
100
AcDbCircle
 10
331.7039510102
 20
33.414446368
 30
0.0
 40
0.8890000000000672
  0
CIRCLE
  5
187
330
1F
100
AcDbEntity
  8
0
  6
Continuous
 62
     7
100
AcDbCircle
 10
314.2039510102
 20
-17.6202999377
 30
0.0
 40
0.8889999999999606
  0
CIRCLE
  5
188
330
1F
100
AcDbEntity
  8
0
  6
Continuous
 62
     7
100
AcDbCircle
 10
299.2039510102
 20
-17.6202999377
 30
0.0
 40
0.8889999999999606
  0
LINE
  5
189
330
1F
100
AcDbEntity
  8
0
  6
Continuous
 62
     7
100
AcDbLine
 10
-2.4807461935
 20
12.3388032444
 30
0.0
 11
-2.3826800649
 21
12.3388032444
 31
0.0
  0
LINE
  5
18A
330
1F
100
AcDbEntity
  8
0
  6
Continuous
 62
     7
100
AcDbLine
 10
-5.2960489898
 20
23.914446368
 30
0.0
 11
18.7039510102
 21
23.914446368
 31
0.0
  0
LINE
  5
18B
330
1F
100
AcDbEntity
  8
0
  6
Continuous
 62
     7
100
AcDbLine
 10
-4.7307461935
 20
12.3388032444
 30
0.0
 11
-2.4807461935
 21
12.3388032444
 31
0.0
  0
LINE
  5
18C
330
1F
100
AcDbEntity
  8
0
  6
Continuous
 62
     7
100
AcDbLine
 10
13.3819987039
 20
-9.085553632
 30
0.0
 11
14.2039510102
 21
-9.085553632
 31
0.0
  0
LINE
  5
18D
330
1F
100
AcDbEntity
  8
0
  6
Continuous
 62
     7
100
AcDbLine
 10
-2.4807461935
 20
20.5548331533
 30
0.0
 11
-2.3826800649
 21
20.5548331533
 31
0.0
  0
LINE
  5
18E
330
1F
100
AcDbEntity
  8
0
  6
Continuous
 62
     7
100
AcDbLine
 10
-2.4807461935
 20
14.3388032444
 30
0.0
 11
-2.3826800649
 21
14.3388032444
 31
0.0
  0
LINE
  5
18F
330
1F
100
AcDbEntity
  8
0
  6
Continuous
 62
     7
100
AcDbLine
 10
-4.7307461935
 20
14.3388032444
 30
0.0
 11
-2.4807461935
 21
14.3388032444
 31
0.0
  0
LINE
  5
190
330
1F
100
AcDbEntity
  8
0
  6
Continuous
 62
     7
100
AcDbLine
 10
-5.4807461935
 20
13.5888032444
 30
0.0
 11
-5.4807461935
 21
13.0888032444
 31
0.0
  0
LINE
  5
191
330
1F
100
AcDbEntity
  8
0
  6
Continuous
 62
     7
100
AcDbLine
 10
-2.4807461935
 20
6.1227733355
 30
0.0
 11
-2.3826800649
 21
6.1227733355
 31
0.0
  0
LINE
  5
192
330
1F
100
AcDbEntity
  8
0
  6
Continuous
 62
     7
100
AcDbLine
 10
-2.4807461935
 20
18.5548331533
 30
0.0
 11
-2.3826800649
 21
18.5548331533
 31
0.0
  0
LINE
  5
193
330
1F
100
AcDbEntity
  8
0
  6
Continuous
 62
     7
100
AcDbLine
 10
34.2039510102
 20
10.914446368
 30
0.0
 11
34.2039510102
 21
21.9269541903
 31
0.0
  0
LINE
  5
194
330
1F
100
AcDbEntity
  8
0
  6
Continuous
 62
     7
100
AcDbLine
 10
-0.7960489898
 20
-9.085553632
 30
0.0
 11
0.0259033164
 21
-9.085553632
 31
0.0
  0
LINE
  5
195
330
1F
100
AcDbEntity
  8
0
  6
Continuous
 62
     7
100
AcDbLine
 10
-20.7960489898
 20
10.914446368
 30
0.0
 11
-20.7960489898
 21
21.9269541903
 31
0.0
  0
LINE
  5
196
330
1F
100
AcDbEntity
  8
0
  6
Continuous
 62
     7
100
AcDbLine
 10
-4.7307461935
 20
6.1227733355
 30
0.0
 11
-2.4807461935
 21
6.1227733355
 31
0.0
  0
LINE
  5
197
330
1F
100
AcDbEntity
  8
0
  6
Continuous
 62
     7
100
AcDbLine
 10
-2.4807461935
 20
8.1227733355
 30
0.0
 11
-2.3826800649
 21
8.1227733355
 31
0.0
  0
LINE
  5
198
330
1F
100
AcDbEntity
  8
0
  6
Continuous
 62
     7
100
AcDbLine
 10
-4.7307461935
 20
8.1227733355
 30
0.0
 11
-2.4807461935
 21
8.1227733355
 31
0.0
  0
LINE
  5
199
330
1F
100
AcDbEntity
  8
0
  6
Continuous
 62
     7
100
AcDbLine
 10
-5.4807461935
 20
7.3727733355
 30
0.0
 11
-5.4807461935
 21
6.8727733355
 31
0.0
  0
LINE
  5
19A
330
1F
100
AcDbEntity
  8
0
  6
Continuous
 62
     7
100
AcDbLine
 10
-4.7307461935
 20
20.5548331533
 30
0.0
 11
-2.4807461935
 21
20.5548331533
 31
0.0
  0
LINE
  5
19B
330
1F
100
AcDbEntity
  8
0
  6
Continuous
 62
     7
100
AcDbLine
 10
-2.4807461935
 20
-0.0932565733
 30
0.0
 11
-2.3826800649
 21
-0.0932565733
 31
0.0
  0
LINE
  5
19C
330
1F
100
AcDbEntity
  8
0
  6
Continuous
 62
     7
100
AcDbLine
 10
-4.7307461935
 20
-0.0932565733
 30
0.0
 11
-2.4807461935
 21
-0.0932565733
 31
0.0
  0
LINE
  5
19D
330
1F
100
AcDbEntity
  8
0
  6
Continuous
 62
     7
100
AcDbLine
 10
-2.4807461935
 20
1.9067434267
 30
0.0
 11
-2.3826800649
 21
1.9067434267
 31
0.0
  0
LINE
  5
19E
330
1F
100
AcDbEntity
  8
0
  6
Continuous
 62
     7
100
AcDbLine
 10
-4.7307461935
 20
1.9067434267
 30
0.0
 11
-2.4807461935
 21
1.9067434267
 31
0.0
  0
LINE
  5
19F
330
1F
100
AcDbEntity
  8
0
  6
Continuous
 62
     7
100
AcDbLine
 10
-5.4807461935
 20
19.8048331533
 30
0.0
 11
-5.4807461935
 21
19.3048331533
 31
0.0
  0
LINE
  5
1A0
330
1F
100
AcDbEntity
  8
0
  6
Continuous
 62
     7
100
AcDbLine
 10
-5.4807461935
 20
1.1567434267
 30
0.0
 11
-5.4807461935
 21
0.6567434267
 31
0.0
  0
LINE
  5
1A1
330
1F
100
AcDbEntity
  8
0
  6
Continuous
 62
     7
100
AcDbLine
 10
-32.5166352075
 20
56.9973351409
 30
0.0
 11
17.4833647925
 21
56.9973351409
 31
0.0
  0
LINE
  5
1A2
330
1F
100
AcDbEntity
  8
0
  6
Continuous
 62
     7
100
AcDbLine
 10
-32.5166352075
 20
51.9973351409
 30
0.0
 11
17.4833647925
 21
51.9973351409
 31
0.0
  0
LINE
  5
1A3
330
1F
100
AcDbEntity
  8
0
  6
Continuous
 62
     7
100
AcDbLine
 10
27.4833647925
 20
56.9973351409
 30
0.0
 11
77.4833647925
 21
56.9973351409
 31
0.0
  0
LINE
  5
1A4
330
1F
100
AcDbEntity
  8
0
  6
Continuous
 62
     7
100
AcDbLine
 10
27.4833647925
 20
51.9973351409
 30
0.0
 11
77.4833647925
 21
51.9973351409
 31
0.0
  0
LINE
  5
1A5
330
1F
100
AcDbEntity
  8
0
  6
Continuous
 62
     7
100
AcDbLine
 10
87.4833647925
 20
56.9973351409
 30
0.0
 11
137.4833647925
 21
56.9973351409
 31
0.0
  0
LINE
  5
1A6
330
1F
100
AcDbEntity
  8
0
  6
Continuous
 62
     7
100
AcDbLine
 10
-4.7307461935
 20
18.5548331533
 30
0.0
 11
-2.4807461935
 21
18.5548331533
 31
0.0
  0
LINE
  5
1A7
330
1F
100
AcDbEntity
  8
0
  6
Continuous
 62
     7
100
AcDbLine
 10
87.4833647925
 20
51.9973351409
 30
0.0
 11
137.4833647925
 21
51.9973351409
 31
0.0
  0
LINE
  5
1A8
330
1F
100
AcDbEntity
  8
0
  6
Continuous
 62
     7
100
AcDbLine
 10
147.4833647925
 20
56.9973351409
 30
0.0
 11
197.4833647925
 21
56.9973351409
 31
0.0
  0
LINE
  5
1A9
330
1F
100
AcDbEntity
  8
0
  6
Continuous
 62
     7
100
AcDbLine
 10
147.4833647925
 20
51.9973351409
 30
0.0
 11
197.4833647925
 21
51.9973351409
 31
0.0
  0
LINE
  5
1AA
330
1F
100
AcDbEntity
  8
0
  6
Continuous
 62
     7
100
AcDbLine
 10
-29.9075701558
 20
60.157051243
 30
0.0
 11
16.5924298442
 21
60.157051243
 31
0.0
  0
LINE
  5
1AB
330
1F
100
AcDbEntity
  8
0
  6
Continuous
 62
     7
100
AcDbLine
 10
-29.9075701558
 20
69.682051243
 30
0.0
 11
16.5924298442
 21
69.682051243
 31
0.0
  0
LINE
  5
1AC
330
1F
100
AcDbEntity
  8
0
  6
Continuous
 62
     7
100
AcDbLine
 10
209.438960828
 20
52.2348351409
 30
0.0
 11
255.938960828
 21
52.2348351409
 31
0.0
  0
LINE
  5
1AD
330
1F
100
AcDbEntity
  8
0
  6
Continuous
 62
     7
100
AcDbLine
 10
209.438960828
 20
61.7598351409
 30
0.0
 11
255.938960828
 21
61.7598351409
 31
0.0
  0
LINE
  5
1AE
330
1F
100
AcDbEntity
  8
0
  6
Continuous
 62
     7
100
AcDbLine
 10
269.438960828
 20
52.2348351409
 30
0.0
 11
315.938960828
 21
52.2348351409
 31
0.0
  0
LINE
  5
1AF
330
1F
100
AcDbEntity
  8
0
  6
Continuous
 62
     7
100
AcDbLine
 10
269.438960828
 20
61.7598351409
 30
0.0
 11
315.938960828
 21
61.7598351409
 31
0.0
  0
LINE
  5
1B0
330
1F
100
AcDbEntity
  8
0
  6
Continuous
 62
     7
100
AcDbLine
 10
30.0924298442
 20
60.157051243
 30
0.0
 11
76.5924298442
 21
60.157051243
 31
0.0
  0
LINE
  5
1B1
330
1F
100
AcDbEntity
  8
0
  6
Continuous
 62
     7
100
AcDbLine
 10
30.0924298442
 20
69.682051243
 30
0.0
 11
76.5924298442
 21
69.682051243
 31
0.0
  0
LINE
  5
1B2
330
1F
100
AcDbEntity
  8
0
  6
Continuous
 62
     7
100
AcDbLine
 10
88.4810194814
 20
60.8674315269
 30
0.0
 11
134.9810194814
 21
60.8674315269
 31
0.0
  0
LINE
  5
1B3
330
1F
100
AcDbEntity
  8
0
  6
Continuous
 62
     7
100
AcDbLine
 10
88.4810194814
 20
70.3924315269
 30
0.0
 11
134.9810194814
 21
70.3924315269
 31
0.0
  0
LINE
  5
1B4
330
1F
100
AcDbEntity
  8
0
  6
Continuous
 62
     7
100
AcDbLine
 10
148.4810194814
 20
60.8674315269
 30
0.0
 11
194.9810194814
 21
60.8674315269
 31
0.0
  0
LINE
  5
1B5
330
1F
100
AcDbEntity
  8
0
  6
Continuous
 62
     7
100
AcDbLine
 10
148.4810194814
 20
70.3924315269
 30
0.0
 11
194.9810194814
 21
70.3924315269
 31
0.0
  0
LINE
  5
1B6
330
1F
100
AcDbEntity
  8
0
  6
Continuous
 62
     7
100
AcDbLine
 10
206.2198170565
 20
65.3599591094
 30
0.0
 11
252.7198170565
 21
65.3599591094
 31
0.0
  0
LINE
  5
1B7
330
1F
100
AcDbEntity
  8
0
  6
Continuous
 62
     7
100
AcDbLine
 10
206.2198170565
 20
74.8849591094
 30
0.0
 11
252.7198170565
 21
74.8849591094
 31
0.0
  0
LINE
  5
1B8
330
1F
100
AcDbEntity
  8
0
  6
Continuous
 62
     7
100
AcDbLine
 10
266.2198170565
 20
65.3599591094
 30
0.0
 11
312.7198170565
 21
65.3599591094
 31
0.0
  0
LINE
  5
1B9
330
1F
100
AcDbEntity
  8
0
  6
Continuous
 62
     7
100
AcDbLine
 10
266.2198170565
 20
74.8849591094
 30
0.0
 11
312.7198170565
 21
74.8849591094
 31
0.0
  0
LINE
  5
1BA
330
1F
100
AcDbEntity
  8
0
  6
Continuous
 62
     7
100
AcDbLine
 10
97.5192538065
 20
12.3388032444
 30
0.0
 11
97.6173199351
 21
12.3388032444
 31
0.0
  0
LINE
  5
1BB
330
1F
100
AcDbEntity
  8
0
  6
Continuous
 62
     7
100
AcDbLine
 10
94.7039510102
 20
23.914446368
 30
0.0
 11
118.7039510102
 21
23.914446368
 31
0.0
  0
LINE
  5
1BC
330
1F
100
AcDbEntity
  8
0
  6
Continuous
 62
     7
100
AcDbLine
 10
95.2692538065
 20
12.3388032444
 30
0.0
 11
97.5192538065
 21
12.3388032444
 31
0.0
  0
LINE
  5
1BD
330
1F
100
AcDbEntity
  8
0
  6
Continuous
 62
     7
100
AcDbLine
 10
113.3819987039
 20
-9.085553632
 30
0.0
 11
114.2039510102
 21
-9.085553632
 31
0.0
  0
LINE
  5
1BE
330
1F
100
AcDbEntity
  8
0
  6
Continuous
 62
     7
100
AcDbLine
 10
97.5192538065
 20
20.5548331533
 30
0.0
 11
97.6173199351
 21
20.5548331533
 31
0.0
  0
LINE
  5
1BF
330
1F
100
AcDbEntity
  8
0
  6
Continuous
 62
     7
100
AcDbLine
 10
97.5192538065
 20
14.3388032444
 30
0.0
 11
97.6173199351
 21
14.3388032444
 31
0.0
  0
LINE
  5
1C0
330
1F
100
AcDbEntity
  8
0
  6
Continuous
 62
     7
100
AcDbLine
 10
95.2692538065
 20
14.3388032444
 30
0.0
 11
97.5192538065
 21
14.3388032444
 31
0.0
  0
LINE
  5
1C1
330
1F
100
AcDbEntity
  8
0
  6
Continuous
 62
     7
100
AcDbLine
 10
94.5192538065
 20
13.5888032444
 30
0.0
 11
94.5192538065
 21
13.0888032444
 31
0.0
  0
LINE
  5
1C2
330
1F
100
AcDbEntity
  8
0
  6
Continuous
 62
     7
100
AcDbLine
 10
97.5192538065
 20
6.1227733355
 30
0.0
 11
97.6173199351
 21
6.1227733355
 31
0.0
  0
LINE
  5
1C3
330
1F
100
AcDbEntity
  8
0
  6
Continuous
 62
     7
100
AcDbLine
 10
97.5192538065
 20
18.5548331533
 30
0.0
 11
97.6173199351
 21
18.5548331533
 31
0.0
  0
LINE
  5
1C4
330
1F
100
AcDbEntity
  8
0
  6
Continuous
 62
     7
100
AcDbLine
 10
134.2039510102
 20
10.914446368
 30
0.0
 11
134.2039510102
 21
21.9269541903
 31
0.0
  0
LINE
  5
1C5
330
1F
100
AcDbEntity
  8
0
  6
Continuous
 62
     7
100
AcDbLine
 10
99.2039510102
 20
-9.085553632
 30
0.0
 11
100.0259033164
 21
-9.085553632
 31
0.0
  0
LINE
  5
1C6
330
1F
100
AcDbEntity
  8
0
  6
Continuous
 62
     7
100
AcDbLine
 10
79.2039510102
 20
10.914446368
 30
0.0
 11
79.2039510102
 21
21.9269541903
 31
0.0
  0
LINE
  5
1C7
330
1F
100
AcDbEntity
  8
0
  6
Continuous
 62
     7
100
AcDbLine
 10
95.2692538065
 20
6.1227733355
 30
0.0
 11
97.5192538065
 21
6.1227733355
 31
0.0
  0
LINE
  5
1C8
330
1F
100
AcDbEntity
  8
0
  6
Continuous
 62
     7
100
AcDbLine
 10
97.5192538065
 20
8.1227733355
 30
0.0
 11
97.6173199351
 21
8.1227733355
 31
0.0
  0
LINE
  5
1C9
330
1F
100
AcDbEntity
  8
0
  6
Continuous
 62
     7
100
AcDbLine
 10
95.2692538065
 20
8.1227733355
 30
0.0
 11
97.5192538065
 21
8.1227733355
 31
0.0
  0
LINE
  5
1CA
330
1F
100
AcDbEntity
  8
0
  6
Continuous
 62
     7
100
AcDbLine
 10
94.5192538065
 20
7.3727733355
 30
0.0
 11
94.5192538065
 21
6.8727733355
 31
0.0
  0
LINE
  5
1CB
330
1F
100
AcDbEntity
  8
0
  6
Continuous
 62
     7
100
AcDbLine
 10
95.2692538065
 20
20.5548331533
 30
0.0
 11
97.5192538065
 21
20.5548331533
 31
0.0
  0
LINE
  5
1CC
330
1F
100
AcDbEntity
  8
0
  6
Continuous
 62
     7
100
AcDbLine
 10
97.5192538065
 20
-0.0932565733
 30
0.0
 11
97.6173199351
 21
-0.0932565733
 31
0.0
  0
LINE
  5
1CD
330
1F
100
AcDbEntity
  8
0
  6
Continuous
 62
     7
100
AcDbLine
 10
95.2692538065
 20
-0.0932565733
 30
0.0
 11
97.5192538065
 21
-0.0932565733
 31
0.0
  0
LINE
  5
1CE
330
1F
100
AcDbEntity
  8
0
  6
Continuous
 62
     7
100
AcDbLine
 10
97.5192538065
 20
1.9067434267
 30
0.0
 11
97.6173199351
 21
1.9067434267
 31
0.0
  0
LINE
  5
1CF
330
1F
100
AcDbEntity
  8
0
  6
Continuous
 62
     7
100
AcDbLine
 10
95.2692538065
 20
1.9067434267
 30
0.0
 11
97.5192538065
 21
1.9067434267
 31
0.0
  0
LINE
  5
1D0
330
1F
100
AcDbEntity
  8
0
  6
Continuous
 62
     7
100
AcDbLine
 10
94.5192538065
 20
19.8048331533
 30
0.0
 11
94.5192538065
 21
19.3048331533
 31
0.0
  0
LINE
  5
1D1
330
1F
100
AcDbEntity
  8
0
  6
Continuous
 62
     7
100
AcDbLine
 10
94.5192538065
 20
1.1567434267
 30
0.0
 11
94.5192538065
 21
0.6567434267
 31
0.0
  0
LINE
  5
1D2
330
1F
100
AcDbEntity
  8
0
  6
Continuous
 62
     7
100
AcDbLine
 10
95.2692538065
 20
18.5548331533
 30
0.0
 11
97.5192538065
 21
18.5548331533
 31
0.0
  0
LINE
  5
1D3
330
1F
100
AcDbEntity
  8
0
  6
Continuous
 62
     7
100
AcDbLine
 10
149.2039510102
 20
34.914446368
 30
0.0
 11
149.2039510102
 21
-6.585553632
 31
0.0
  0
LINE
  5
1D4
330
1F
100
AcDbEntity
  8
0
  6
Continuous
 62
     7
100
AcDbLine
 10
164.2039510102
 20
-6.585553632
 30
0.0
 11
164.2039510102
 21
34.914446368
 31
0.0
  0
LINE
  5
1D5
330
1F
100
AcDbEntity
  8
0
  6
Continuous
 62
     7
100
AcDbLine
 10
197.5192538065
 20
12.3388032444
 30
0.0
 11
197.6173199351
 21
12.3388032444
 31
0.0
  0
LINE
  5
1D6
330
1F
100
AcDbEntity
  8
0
  6
Continuous
 62
     7
100
AcDbLine
 10
194.7039510102
 20
23.914446368
 30
0.0
 11
218.7039510102
 21
23.914446368
 31
0.0
  0
LINE
  5
1D7
330
1F
100
AcDbEntity
  8
0
  6
Continuous
 62
     7
100
AcDbLine
 10
195.2692538065
 20
12.3388032444
 30
0.0
 11
197.5192538065
 21
12.3388032444
 31
0.0
  0
LINE
  5
1D8
330
1F
100
AcDbEntity
  8
0
  6
Continuous
 62
     7
100
AcDbLine
 10
213.3819987039
 20
-9.085553632
 30
0.0
 11
214.2039510102
 21
-9.085553632
 31
0.0
  0
LINE
  5
1D9
330
1F
100
AcDbEntity
  8
0
  6
Continuous
 62
     7
100
AcDbLine
 10
197.5192538065
 20
20.5548331533
 30
0.0
 11
197.6173199351
 21
20.5548331533
 31
0.0
  0
LINE
  5
1DA
330
1F
100
AcDbEntity
  8
0
  6
Continuous
 62
     7
100
AcDbLine
 10
197.5192538065
 20
14.3388032444
 30
0.0
 11
197.6173199351
 21
14.3388032444
 31
0.0
  0
LINE
  5
1DB
330
1F
100
AcDbEntity
  8
0
  6
Continuous
 62
     7
100
AcDbLine
 10
195.2692538065
 20
14.3388032444
 30
0.0
 11
197.5192538065
 21
14.3388032444
 31
0.0
  0
LINE
  5
1DC
330
1F
100
AcDbEntity
  8
0
  6
Continuous
 62
     7
100
AcDbLine
 10
194.5192538065
 20
13.5888032444
 30
0.0
 11
194.5192538065
 21
13.0888032444
 31
0.0
  0
LINE
  5
1DD
330
1F
100
AcDbEntity
  8
0
  6
Continuous
 62
     7
100
AcDbLine
 10
197.5192538065
 20
6.1227733355
 30
0.0
 11
197.6173199351
 21
6.1227733355
 31
0.0
  0
LINE
  5
1DE
330
1F
100
AcDbEntity
  8
0
  6
Continuous
 62
     7
100
AcDbLine
 10
197.5192538065
 20
18.5548331533
 30
0.0
 11
197.6173199351
 21
18.5548331533
 31
0.0
  0
LINE
  5
1DF
330
1F
100
AcDbEntity
  8
0
  6
Continuous
 62
     7
100
AcDbLine
 10
234.2039510102
 20
10.914446368
 30
0.0
 11
234.2039510102
 21
21.9269541903
 31
0.0
  0
LINE
  5
1E0
330
1F
100
AcDbEntity
  8
0
  6
Continuous
 62
     7
100
AcDbLine
 10
199.2039510102
 20
-9.085553632
 30
0.0
 11
200.0259033164
 21
-9.085553632
 31
0.0
  0
LINE
  5
1E1
330
1F
100
AcDbEntity
  8
0
  6
Continuous
 62
     7
100
AcDbLine
 10
179.2039510102
 20
10.914446368
 30
0.0
 11
179.2039510102
 21
21.9269541903
 31
0.0
  0
LINE
  5
1E2
330
1F
100
AcDbEntity
  8
0
  6
Continuous
 62
     7
100
AcDbLine
 10
195.2692538065
 20
6.1227733355
 30
0.0
 11
197.5192538065
 21
6.1227733355
 31
0.0
  0
LINE
  5
1E3
330
1F
100
AcDbEntity
  8
0
  6
Continuous
 62
     7
100
AcDbLine
 10
197.5192538065
 20
8.1227733355
 30
0.0
 11
197.6173199351
 21
8.1227733355
 31
0.0
  0
LINE
  5
1E4
330
1F
100
AcDbEntity
  8
0
  6
Continuous
 62
     7
100
AcDbLine
 10
195.2692538065
 20
8.1227733355
 30
0.0
 11
197.5192538065
 21
8.1227733355
 31
0.0
  0
LINE
  5
1E5
330
1F
100
AcDbEntity
  8
0
  6
Continuous
 62
     7
100
AcDbLine
 10
194.5192538065
 20
7.3727733355
 30
0.0
 11
194.5192538065
 21
6.8727733355
 31
0.0
  0
LINE
  5
1E6
330
1F
100
AcDbEntity
  8
0
  6
Continuous
 62
     7
100
AcDbLine
 10
195.2692538065
 20
20.5548331533
 30
0.0
 11
197.5192538065
 21
20.5548331533
 31
0.0
  0
LINE
  5
1E7
330
1F
100
AcDbEntity
  8
0
  6
Continuous
 62
     7
100
AcDbLine
 10
197.5192538065
 20
-0.0932565733
 30
0.0
 11
197.6173199351
 21
-0.0932565733
 31
0.0
  0
LINE
  5
1E8
330
1F
100
AcDbEntity
  8
0
  6
Continuous
 62
     7
100
AcDbLine
 10
195.2692538065
 20
-0.0932565733
 30
0.0
 11
197.5192538065
 21
-0.0932565733
 31
0.0
  0
LINE
  5
1E9
330
1F
100
AcDbEntity
  8
0
  6
Continuous
 62
     7
100
AcDbLine
 10
197.5192538065
 20
1.9067434267
 30
0.0
 11
197.6173199351
 21
1.9067434267
 31
0.0
  0
LINE
  5
1EA
330
1F
100
AcDbEntity
  8
0
  6
Continuous
 62
     7
100
AcDbLine
 10
195.2692538065
 20
1.9067434267
 30
0.0
 11
197.5192538065
 21
1.9067434267
 31
0.0
  0
LINE
  5
1EB
330
1F
100
AcDbEntity
  8
0
  6
Continuous
 62
     7
100
AcDbLine
 10
194.5192538065
 20
19.8048331533
 30
0.0
 11
194.5192538065
 21
19.3048331533
 31
0.0
  0
LINE
  5
1EC
330
1F
100
AcDbEntity
  8
0
  6
Continuous
 62
     7
100
AcDbLine
 10
194.5192538065
 20
1.1567434267
 30
0.0
 11
194.5192538065
 21
0.6567434267
 31
0.0
  0
LINE
  5
1ED
330
1F
100
AcDbEntity
  8
0
  6
Continuous
 62
     7
100
AcDbLine
 10
195.2692538065
 20
18.5548331533
 30
0.0
 11
197.5192538065
 21
18.5548331533
 31
0.0
  0
LINE
  5
1EE
330
1F
100
AcDbEntity
  8
0
  6
Continuous
 62
     7
100
AcDbLine
 10
249.2039510102
 20
34.914446368
 30
0.0
 11
249.2039510102
 21
-6.585553632
 31
0.0
  0
LINE
  5
1EF
330
1F
100
AcDbEntity
  8
0
  6
Continuous
 62
     7
100
AcDbLine
 10
264.2039510102
 20
-6.585553632
 30
0.0
 11
264.2039510102
 21
34.914446368
 31
0.0
  0
LINE
  5
1F0
330
1F
100
AcDbEntity
  8
0
  6
Continuous
 62
     7
100
AcDbLine
 10
297.5192538065
 20
12.3388032444
 30
0.0
 11
297.6173199351
 21
12.3388032444
 31
0.0
  0
LINE
  5
1F1
330
1F
100
AcDbEntity
  8
0
  6
Continuous
 62
     7
100
AcDbLine
 10
294.7039510102
 20
23.914446368
 30
0.0
 11
318.7039510102
 21
23.914446368
 31
0.0
  0
LINE
  5
1F2
330
1F
100
AcDbEntity
  8
0
  6
Continuous
 62
     7
100
AcDbLine
 10
295.2692538065
 20
12.3388032444
 30
0.0
 11
297.5192538065
 21
12.3388032444
 31
0.0
  0
LINE
  5
1F3
330
1F
100
AcDbEntity
  8
0
  6
Continuous
 62
     7
100
AcDbLine
 10
313.3819987039
 20
-9.085553632
 30
0.0
 11
314.2039510102
 21
-9.085553632
 31
0.0
  0
LINE
  5
1F4
330
1F
100
AcDbEntity
  8
0
  6
Continuous
 62
     7
100
AcDbLine
 10
297.5192538065
 20
20.5548331533
 30
0.0
 11
297.6173199351
 21
20.5548331533
 31
0.0
  0
LINE
  5
1F5
330
1F
100
AcDbEntity
  8
0
  6
Continuous
 62
     7
100
AcDbLine
 10
297.5192538065
 20
14.3388032444
 30
0.0
 11
297.6173199351
 21
14.3388032444
 31
0.0
  0
LINE
  5
1F6
330
1F
100
AcDbEntity
  8
0
  6
Continuous
 62
     7
100
AcDbLine
 10
295.2692538065
 20
14.3388032444
 30
0.0
 11
297.5192538065
 21
14.3388032444
 31
0.0
  0
LINE
  5
1F7
330
1F
100
AcDbEntity
  8
0
  6
Continuous
 62
     7
100
AcDbLine
 10
294.5192538065
 20
13.5888032444
 30
0.0
 11
294.5192538065
 21
13.0888032444
 31
0.0
  0
LINE
  5
1F8
330
1F
100
AcDbEntity
  8
0
  6
Continuous
 62
     7
100
AcDbLine
 10
297.5192538065
 20
6.1227733355
 30
0.0
 11
297.6173199351
 21
6.1227733355
 31
0.0
  0
LINE
  5
1F9
330
1F
100
AcDbEntity
  8
0
  6
Continuous
 62
     7
100
AcDbLine
 10
297.5192538065
 20
18.5548331533
 30
0.0
 11
297.6173199351
 21
18.5548331533
 31
0.0
  0
LINE
  5
1FA
330
1F
100
AcDbEntity
  8
0
  6
Continuous
 62
     7
100
AcDbLine
 10
334.2039510102
 20
10.914446368
 30
0.0
 11
334.2039510102
 21
21.9269541903
 31
0.0
  0
LINE
  5
1FB
330
1F
100
AcDbEntity
  8
0
  6
Continuous
 62
     7
100
AcDbLine
 10
299.2039510102
 20
-9.085553632
 30
0.0
 11
300.0259033164
 21
-9.085553632
 31
0.0
  0
LINE
  5
1FC
330
1F
100
AcDbEntity
  8
0
  6
Continuous
 62
     7
100
AcDbLine
 10
279.2039510102
 20
10.914446368
 30
0.0
 11
279.2039510102
 21
21.9269541903
 31
0.0
  0
LINE
  5
1FD
330
1F
100
AcDbEntity
  8
0
  6
Continuous
 62
     7
100
AcDbLine
 10
295.2692538065
 20
6.1227733355
 30
0.0
 11
297.5192538065
 21
6.1227733355
 31
0.0
  0
LINE
  5
1FE
330
1F
100
AcDbEntity
  8
0
  6
Continuous
 62
     7
100
AcDbLine
 10
297.5192538065
 20
8.1227733355
 30
0.0
 11
297.6173199351
 21
8.1227733355
 31
0.0
  0
LINE
  5
1FF
330
1F
100
AcDbEntity
  8
0
  6
Continuous
 62
     7
100
AcDbLine
 10
295.2692538065
 20
8.1227733355
 30
0.0
 11
297.5192538065
 21
8.1227733355
 31
0.0
  0
LINE
  5
200
330
1F
100
AcDbEntity
  8
0
  6
Continuous
 62
     7
100
AcDbLine
 10
294.5192538065
 20
7.3727733355
 30
0.0
 11
294.5192538065
 21
6.8727733355
 31
0.0
  0
LINE
  5
201
330
1F
100
AcDbEntity
  8
0
  6
Continuous
 62
     7
100
AcDbLine
 10
295.2692538065
 20
20.5548331533
 30
0.0
 11
297.5192538065
 21
20.5548331533
 31
0.0
  0
LINE
  5
202
330
1F
100
AcDbEntity
  8
0
  6
Continuous
 62
     7
100
AcDbLine
 10
297.5192538065
 20
-0.0932565733
 30
0.0
 11
297.6173199351
 21
-0.0932565733
 31
0.0
  0
LINE
  5
203
330
1F
100
AcDbEntity
  8
0
  6
Continuous
 62
     7
100
AcDbLine
 10
295.2692538065
 20
-0.0932565733
 30
0.0
 11
297.5192538065
 21
-0.0932565733
 31
0.0
  0
LINE
  5
204
330
1F
100
AcDbEntity
  8
0
  6
Continuous
 62
     7
100
AcDbLine
 10
297.5192538065
 20
1.9067434267
 30
0.0
 11
297.6173199351
 21
1.9067434267
 31
0.0
  0
LINE
  5
205
330
1F
100
AcDbEntity
  8
0
  6
Continuous
 62
     7
100
AcDbLine
 10
295.2692538065
 20
1.9067434267
 30
0.0
 11
297.5192538065
 21
1.9067434267
 31
0.0
  0
LINE
  5
206
330
1F
100
AcDbEntity
  8
0
  6
Continuous
 62
     7
100
AcDbLine
 10
294.5192538065
 20
19.8048331533
 30
0.0
 11
294.5192538065
 21
19.3048331533
 31
0.0
  0
LINE
  5
207
330
1F
100
AcDbEntity
  8
0
  6
Continuous
 62
     7
100
AcDbLine
 10
294.5192538065
 20
1.1567434267
 30
0.0
 11
294.5192538065
 21
0.6567434267
 31
0.0
  0
LINE
  5
208
330
1F
100
AcDbEntity
  8
0
  6
Continuous
 62
     7
100
AcDbLine
 10
295.2692538065
 20
18.5548331533
 30
0.0
 11
297.5192538065
 21
18.5548331533
 31
0.0
  0
LINE
  5
209
330
1F
100
AcDbEntity
  8
0
  6
Continuous
 62
     7
100
AcDbLine
 10
49.2039510102
 20
34.914446368
 30
0.0
 11
49.2039510102
 21
-6.585553632
 31
0.0
  0
LINE
  5
20A
330
1F
100
AcDbEntity
  8
0
  6
Continuous
 62
     7
100
AcDbLine
 10
64.2039510102
 20
-6.585553632
 30
0.0
 11
64.2039510102
 21
34.914446368
 31
0.0
  0
LINE
  5
20B
330
1F
100
AcDbEntity
  8
0
  6
Continuous
 62
     7
100
AcDbLine
 10
-20.7960489898
 20
49.914446368
 30
0.0
 11
334.2039510102
 21
49.914446368
 31
0.0
  0
LINE
  5
20C
330
1F
100
AcDbEntity
  8
0
  6
Continuous
 62
     7
100
AcDbLine
 10
-35.7960489898
 20
34.914446368
 30
0.0
 11
-35.7960489898
 21
-6.585553632
 31
0.0
  0
LINE
  5
20D
330
1F
100
AcDbEntity
  8
0
  6
Continuous
 62
     7
100
AcDbLine
 10
-20.7960489898
 20
-21.585553632
 30
0.0
 11
334.2039510102
 21
-21.585553632
 31
0.0
  0
LINE
  5
20E
330
1F
100
AcDbEntity
  8
0
  6
Continuous
 62
     7
100
AcDbLine
 10
349.2039510102
 20
-6.585553632
 30
0.0
 11
349.2039510102
 21
34.914446368
 31
0.0
  0
MTEXT
  5
210
330
1F
100
AcDbEntity
  8
0
  6
Continuous
 62
     7
100
AcDbMText
 10
-35.7960489898
 20
-22.6051200237
 30
0.0
 40
4.83362
 41
0.0
 71
     1
 72
     1
  1
SolidWorks Student Edition.
  7
SLDTEXTSTYLE0
 73
     1
 44
1.0
  0
MTEXT
  5
211
330
1F
100
AcDbEntity
  8
0
  6
Continuous
 62
     7
100
AcDbMText
 10
-35.7960489898
 20
-29.8555500237
 30
0.0
 40
4.83362
 41
0.0
 71
     1
 72
     1
  1
For Academic Use Only.
  7
SLDTEXTSTYLE0
 73
     1
 44
1.0
  0
ENDSEC
  0
SECTION
  2
OBJECTS
  0
DICTIONARY
  5
C
330
0
100
AcDbDictionary
281
     1
  3
ACAD_GROUP
350
D
  3
ACAD_LAYOUT
350
1A
  3
ACAD_MLINESTYLE
350
17
  3
ACAD_PLOTSETTINGS
350
19
  3
ACAD_PLOTSTYLENAME
350
E
  3
ACAD_SCALELIST
350
47
  0
DICTIONARY
  5
D
102
{ACAD_REACTORS
330
C
102
}
330
C
100
AcDbDictionary
281
     1
  0
DICTIONARY
  5
1A
102
{ACAD_REACTORS
330
C
102
}
330
C
100
AcDbDictionary
281
     1
  3
Layout1
350
1E
  3
Layout2
350
26
  3
Model
350
22
  0
DICTIONARY
  5
17
102
{ACAD_REACTORS
330
C
102
}
330
C
100
AcDbDictionary
281
     1
  3
Standard
350
18
  0
DICTIONARY
  5
19
102
{ACAD_REACTORS
330
C
102
}
330
C
100
AcDbDictionary
281
     1
  0
ACDBDICTIONARYWDFLT
  5
E
102
{ACAD_REACTORS
330
C
102
}
330
C
100
AcDbDictionary
281
     1
  3
Normal
350
F
100
AcDbDictionaryWithDefault
340
F
  0
DICTIONARY
  5
47
102
{ACAD_REACTORS
330
C
102
}
330
C
100
AcDbDictionary
281
     1
  3
A0
350
48
  3
A1
350
49
  3
A2
350
4A
  3
A3
350
4B
  3
A4
350
4C
  3
A5
350
4D
  3
A6
350
4E
  3
A7
350
4F
  3
A8
350
50
  3
A9
350
51
  3
B0
350
52
  3
B1
350
53
  3
B2
350
54
  3
B3
350
55
  3
B4
350
56
  3
B5
350
57
  3
B6
350
58
  3
B7
350
59
  3
B8
350
5A
  3
B9
350
5B
  3
C0
350
5C
  3
C1
350
5D
  3
C2
350
5E
  3
C3
350
5F
  3
C4
350
60
  3
C5
350
61
  3
C6
350
62
  3
C7
350
63
  3
C8
350
64
  3
C9
350
65
  3
D0
350
66
  3
D1
350
67
  3
D2
350
68
  0
LAYOUT
  5
1E
102
{ACAD_REACTORS
330
1A
102
}
330
1A
100
AcDbPlotSettings
  1

  2
none_device
  4

  6

 40
0.0
 41
0.0
 42
0.0
 43
0.0
 44
0.0
 45
0.0
 46
0.0
 47
0.0
 48
0.0
 49
0.0
140
0.0
141
0.0
142
1.0
143
1.0
 70
   688
 72
     1
 73
     0
 74
     5
  7

 75
    16
147
1.0
148
0.0
149
0.0
100
AcDbLayout
  1
Layout1
 70
     1
 71
     1
 10
0.0
 20
0.0
 11
420.0
 21
297.0
 12
0.0
 22
0.0
 32
0.0
 14
1.0000000000E+20
 24
1.0000000000E+20
 34
1.0000000000E+20
 15
-1.0000000000E+20
 25
-1.0000000000E+20
 35
-1.0000000000E+20
146
0.0
 13
0.0
 23
0.0
 33
0.0
 16
1.0
 26
0.0
 36
0.0
 17
0.0
 27
1.0
 37
0.0
 76
     0
330
1B
  0
LAYOUT
  5
26
102
{ACAD_REACTORS
330
1A
102
}
330
1A
100
AcDbPlotSettings
  1

  2
none_device
  4

  6

 40
0.0
 41
0.0
 42
0.0
 43
0.0
 44
0.0
 45
0.0
 46
0.0
 47
0.0
 48
0.0
 49
0.0
140
0.0
141
0.0
142
1.0
143
1.0
 70
   688
 72
     1
 73
     0
 74
     5
  7

 75
    16
147
1.0
148
0.0
149
0.0
100
AcDbLayout
  1
Layout2
 70
     1
 71
     2
 10
0.0
 20
0.0
 11
0.0
 21
0.0
 12
0.0
 22
0.0
 32
0.0
 14
0.0
 24
0.0
 34
0.0
 15
0.0
 25
0.0
 35
0.0
146
0.0
 13
0.0
 23
0.0
 33
0.0
 16
1.0
 26
0.0
 36
0.0
 17
0.0
 27
1.0
 37
0.0
 76
     0
330
23
  0
LAYOUT
  5
22
102
{ACAD_REACTORS
330
1A
102
}
330
1A
100
AcDbPlotSettings
  1

  2
none_device
  4
ANSI_A_(11.00_x_8.50_Inches)
  6

 40
6.35
 41
19.05
 42
6.35000508
 43
19.05000254
 44
279.4
 45
215.9
 46
20.7649245428
 47
69.7533294424
 48
0.0
 49
0.0
140
0.0
141
0.0
142
0.0282857143
143
1.0
 70
  1696
 72
     0
 73
     0
 74
     0
  7

 75
     0
147
0.0179189148
148
-1300.4909072572
149
0.0
100
AcDbLayout
  1
Model
 70
     1
 71
     0
 10
0.0
 20
0.0
 11
420.0
 21
297.0
 12
0.0
 22
0.0
 32
0.0
 14
-35.7960489898
 24
-21.585553632
 34
0.0
 15
349.2039510102
 25
74.8849591094
 35
0.0
146
0.0
 13
0.0
 23
0.0
 33
0.0
 16
1.0
 26
0.0
 36
0.0
 17
0.0
 27
1.0
 37
0.0
 76
     0
330
1F
331
29
  0
MLINESTYLE
  5
18
102
{ACAD_REACTORS
330
17
102
}
330
17
100
AcDbMlineStyle
  2
Standard
 70
     0
  3

 62
   256
 51
90.0
 52
90.0
 71
     2
 49
0.5
 62
   256
  6
BYLAYER
 49
-0.5
 62
   256
  6
BYLAYER
  0
ACDBPLACEHOLDER
  5
F
102
{ACAD_REACTORS
330
E
102
}
330
E
  0
SCALE
  5
48
102
{ACAD_REACTORS
330
47
102
}
330
47
100
AcDbScale
 70
     0
300
1:1
140
1.0
141
1.0
290
     1
  0
SCALE
  5
49
102
{ACAD_REACTORS
330
47
102
}
330
47
100
AcDbScale
 70
     0
300
1:2
140
1.0
141
2.0
290
     0
  0
SCALE
  5
4A
102
{ACAD_REACTORS
330
47
102
}
330
47
100
AcDbScale
 70
     0
300
1:4
140
1.0
141
4.0
290
     0
  0
SCALE
  5
4B
102
{ACAD_REACTORS
330
47
102
}
330
47
100
AcDbScale
 70
     0
300
1:5
140
1.0
141
5.0
290
     0
  0
SCALE
  5
4C
102
{ACAD_REACTORS
330
47
102
}
330
47
100
AcDbScale
 70
     0
300
1:8
140
1.0
141
8.0
290
     0
  0
SCALE
  5
4D
102
{ACAD_REACTORS
330
47
102
}
330
47
100
AcDbScale
 70
     0
300
1:10
140
1.0
141
10.0
290
     0
  0
SCALE
  5
4E
102
{ACAD_REACTORS
330
47
102
}
330
47
100
AcDbScale
 70
     0
300
1:16
140
1.0
141
16.0
290
     0
  0
SCALE
  5
4F
102
{ACAD_REACTORS
330
47
102
}
330
47
100
AcDbScale
 70
     0
300
1:20
140
1.0
141
20.0
290
     0
  0
SCALE
  5
50
102
{ACAD_REACTORS
330
47
102
}
330
47
100
AcDbScale
 70
     0
300
1:30
140
1.0
141
30.0
290
     0
  0
SCALE
  5
51
102
{ACAD_REACTORS
330
47
102
}
330
47
100
AcDbScale
 70
     0
300
1:40
140
1.0
141
40.0
290
     0
  0
SCALE
  5
52
102
{ACAD_REACTORS
330
47
102
}
330
47
100
AcDbScale
 70
     0
300
1:50
140
1.0
141
50.0
290
     0
  0
SCALE
  5
53
102
{ACAD_REACTORS
330
47
102
}
330
47
100
AcDbScale
 70
     0
300
1:100
140
1.0
141
100.0
290
     0
  0
SCALE
  5
54
102
{ACAD_REACTORS
330
47
102
}
330
47
100
AcDbScale
 70
     0
300
2:1
140
2.0
141
1.0
290
     0
  0
SCALE
  5
55
102
{ACAD_REACTORS
330
47
102
}
330
47
100
AcDbScale
 70
     0
300
4:1
140
4.0
141
1.0
290
     0
  0
SCALE
  5
56
102
{ACAD_REACTORS
330
47
102
}
330
47
100
AcDbScale
 70
     0
300
8:1
140
8.0
141
1.0
290
     0
  0
SCALE
  5
57
102
{ACAD_REACTORS
330
47
102
}
330
47
100
AcDbScale
 70
     0
300
10:1
140
10.0
141
1.0
290
     0
  0
SCALE
  5
58
102
{ACAD_REACTORS
330
47
102
}
330
47
100
AcDbScale
 70
     0
300
100:1
140
100.0
141
1.0
290
     0
  0
SCALE
  5
59
102
{ACAD_REACTORS
330
47
102
}
330
47
100
AcDbScale
 70
     0
300
1/128" = 1'-0"
140
0.0078125
141
12.0
290
     0
  0
SCALE
  5
5A
102
{ACAD_REACTORS
330
47
102
}
330
47
100
AcDbScale
 70
     0
300
1/64" = 1'-0"
140
0.015625
141
12.0
290
     0
  0
SCALE
  5
5B
102
{ACAD_REACTORS
330
47
102
}
330
47
100
AcDbScale
 70
     0
300
1/32" = 1'-0"
140
0.03125
141
12.0
290
     0
  0
SCALE
  5
5C
102
{ACAD_REACTORS
330
47
102
}
330
47
100
AcDbScale
 70
     0
300
1/16" = 1'-0"
140
0.0625
141
12.0
290
     0
  0
SCALE
  5
5D
102
{ACAD_REACTORS
330
47
102
}
330
47
100
AcDbScale
 70
     0
300
3/32" = 1'-0"
140
0.09375
141
12.0
290
     0
  0
SCALE
  5
5E
102
{ACAD_REACTORS
330
47
102
}
330
47
100
AcDbScale
 70
     0
300
1/8" = 1'-0"
140
0.125
141
12.0
290
     0
  0
SCALE
  5
5F
102
{ACAD_REACTORS
330
47
102
}
330
47
100
AcDbScale
 70
     0
300
3/16" = 1'-0"
140
0.1875
141
12.0
290
     0
  0
SCALE
  5
60
102
{ACAD_REACTORS
330
47
102
}
330
47
100
AcDbScale
 70
     0
300
1/4" = 1'-0"
140
0.25
141
12.0
290
     0
  0
SCALE
  5
61
102
{ACAD_REACTORS
330
47
102
}
330
47
100
AcDbScale
 70
     0
300
3/8" = 1'-0"
140
0.375
141
12.0
290
     0
  0
SCALE
  5
62
102
{ACAD_REACTORS
330
47
102
}
330
47
100
AcDbScale
 70
     0
300
1/2" = 1'-0"
140
0.5
141
12.0
290
     0
  0
SCALE
  5
63
102
{ACAD_REACTORS
330
47
102
}
330
47
100
AcDbScale
 70
     0
300
3/4" = 1'-0"
140
0.75
141
12.0
290
     0
  0
SCALE
  5
64
102
{ACAD_REACTORS
330
47
102
}
330
47
100
AcDbScale
 70
     0
300
1" = 1'-0"
140
1.0
141
12.0
290
     0
  0
SCALE
  5
65
102
{ACAD_REACTORS
330
47
102
}
330
47
100
AcDbScale
 70
     0
300
1-1/2" = 1'-0"
140
1.5
141
12.0
290
     0
  0
SCALE
  5
66
102
{ACAD_REACTORS
330
47
102
}
330
47
100
AcDbScale
 70
     0
300
3" = 1'-0"
140
3.0
141
12.0
290
     0
  0
SCALE
  5
67
102
{ACAD_REACTORS
330
47
102
}
330
47
100
AcDbScale
 70
     0
300
6" = 1'-0"
140
6.0
141
12.0
290
     0
  0
SCALE
  5
68
102
{ACAD_REACTORS
330
47
102
}
330
47
100
AcDbScale
 70
     0
300
1'-0" = 1'-0"
140
12.0
141
12.0
290
     0
  0
ENDSEC
  0
EOF
